<?xml version="1.0" encoding="UTF-8" standalone="no"?>
<!-- Created with Inkscape (http://www.inkscape.org/) -->

<svg
   xmlns:dc="http://purl.org/dc/elements/1.1/"
   xmlns:cc="http://creativecommons.org/ns#"
   xmlns:rdf="http://www.w3.org/1999/02/22-rdf-syntax-ns#"
   xmlns:svg="http://www.w3.org/2000/svg"
   xmlns="http://www.w3.org/2000/svg"
   xmlns:xlink="http://www.w3.org/1999/xlink"
   xmlns:sodipodi="http://sodipodi.sourceforge.net/DTD/sodipodi-0.dtd"
   xmlns:inkscape="http://www.inkscape.org/namespaces/inkscape"
   inkscape:export-ydpi="200"
   inkscape:export-xdpi="200"
   inkscape:export-filename="/home/dnyeupe/Dropbox/CV/infoCV/DavidTorralba-InfographicCV.png"
   sodipodi:docname="past_atle.svg"
   inkscape:version="0.48.4 r9939"
   version="1.1"
   id="svg7256"
   height="20"
   width="20">
  <sodipodi:namedview
     id="base"
     pagecolor="#000000"
     bordercolor="#666666"
     borderopacity="1.0"
     inkscape:pageopacity="0.36470588"
     inkscape:pageshadow="2"
     inkscape:zoom="9.8006675"
     inkscape:cx="26.809471"
     inkscape:cy="17.662769"
     inkscape:document-units="px"
     inkscape:current-layer="layer6"
     showgrid="false"
     inkscape:window-width="1535"
     inkscape:window-height="876"
     inkscape:window-x="65"
     inkscape:window-y="24"
     inkscape:window-maximized="1"
     showguides="true"
     inkscape:guide-bbox="true"
     inkscape:snap-global="true"
     fit-margin-top="0"
     fit-margin-left="0"
     fit-margin-right="0"
     fit-margin-bottom="0"
     inkscape:snap-grids="true"
     height="1052.36px">
    <inkscape:grid
       originy="-2843.5157px"
       originx="-236.51515px"
       dotted="true"
       snapvisiblegridlinesonly="true"
       enabled="true"
       visible="true"
       empspacing="5"
       id="grid10841"
       type="xygrid" />
  </sodipodi:namedview>
  <defs
     id="defs7258">
    <linearGradient
       id="linearGradient9577">
      <stop
         style="stop-color:#ffffff;stop-opacity:1;"
         offset="0"
         id="stop9579" />
      <stop
         style="stop-color:#ddd1bf;stop-opacity:1;"
         offset="1"
         id="stop9581" />
    </linearGradient>
    <linearGradient
       id="linearGradient68693">
      <stop
         style="stop-color:#ffffff;stop-opacity:1;"
         offset="0"
         id="stop68695" />
      <stop
         style="stop-color:#000000;stop-opacity:1;"
         offset="1"
         id="stop68697" />
    </linearGradient>
    <linearGradient
       id="linearGradient18772">
      <stop
         style="stop-color:#cfaa75;stop-opacity:1;"
         offset="0"
         id="stop18774" />
      <stop
         style="stop-color:#cfaa75;stop-opacity:0.66060609;"
         offset="1"
         id="stop18776" />
    </linearGradient>
    <linearGradient
       id="linearGradient18764">
      <stop
         style="stop-color:#bda784;stop-opacity:1;"
         offset="0"
         id="stop18766" />
      <stop
         style="stop-color:#bda784;stop-opacity:1;"
         offset="1"
         id="stop18768" />
    </linearGradient>
    <linearGradient
       id="linearGradient12741">
      <stop
         style="stop-color:#ffffff;stop-opacity:0;"
         offset="0"
         id="stop12743" />
      <stop
         id="stop12749"
         offset="0.2"
         style="stop-color:#ffffff;stop-opacity:1;" />
      <stop
         id="stop12745"
         offset="0.80000001"
         style="stop-color:#ffffff;stop-opacity:1;" />
      <stop
         style="stop-color:#ffffff;stop-opacity:0;"
         offset="1"
         id="stop12747" />
    </linearGradient>
    <linearGradient
       id="linearGradient7496">
      <stop
         id="stop7498"
         offset="0"
         style="stop-color:#ffffff;stop-opacity:1;" />
      <stop
         style="stop-color:#ffffff;stop-opacity:1;"
         offset="0.2"
         id="stop7504" />
      <stop
         id="stop7500"
         offset="1"
         style="stop-color:#ffffff;stop-opacity:0;" />
    </linearGradient>
    <linearGradient
       id="linearGradient5981"
       inkscape:collect="always">
      <stop
         id="stop5983"
         offset="0"
         style="stop-color:#9291f7;stop-opacity:1;" />
      <stop
         id="stop5985"
         offset="1"
         style="stop-color:#9291f7;stop-opacity:0;" />
    </linearGradient>
    <marker
       style="overflow:visible"
       id="DotL"
       refX="0"
       refY="0"
       orient="auto"
       inkscape:stockid="DotL">
      <path
         inkscape:connector-curvature="0"
         transform="matrix(0.8,0,0,0.8,5.92,0.8)"
         style="fill-rule:evenodd;stroke:#000000;stroke-width:1pt"
         d="m -2.5,-1 c 0,2.76 -2.24,5 -5,5 -2.76,0 -5,-2.24 -5,-5 0,-2.76 2.24,-5 5,-5 2.76,0 5,2.24 5,5 z"
         id="path4214" />
    </marker>
    <linearGradient
       gradientUnits="userSpaceOnUse"
       y2="1065.0002"
       x2="1817.9534"
       y1="1065.0002"
       x1="1280"
       id="linearGradient5987"
       xlink:href="#linearGradient5981"
       inkscape:collect="always" />
    <linearGradient
       spreadMethod="pad"
       gradientUnits="userSpaceOnUse"
       y2="4570"
       x2="1080.0625"
       y1="4570"
       x1="79.9375"
       id="linearGradient12753"
       xlink:href="#linearGradient12741"
       inkscape:collect="always" />
    <linearGradient
       gradientUnits="userSpaceOnUse"
       y2="4570"
       x2="1080.0625"
       y1="4570"
       x1="79.9375"
       id="linearGradient13006"
       xlink:href="#linearGradient12741"
       inkscape:collect="always" />
    <linearGradient
       gradientUnits="userSpaceOnUse"
       y2="4570"
       x2="1040.0625"
       y1="4570"
       x1="119.9375"
       id="linearGradient13008"
       xlink:href="#linearGradient12741"
       inkscape:collect="always" />
    <linearGradient
       gradientUnits="userSpaceOnUse"
       y2="4570"
       x2="1080.0625"
       y1="4570"
       x1="79.9375"
       id="linearGradient13416"
       xlink:href="#linearGradient12741"
       inkscape:collect="always" />
    <linearGradient
       id="linearGradient12741-9">
      <stop
         style="stop-color:#ffffff;stop-opacity:0;"
         offset="0"
         id="stop12743-9" />
      <stop
         id="stop12749-2"
         offset="0.2"
         style="stop-color:#ffffff;stop-opacity:1;" />
      <stop
         id="stop12745-1"
         offset="0.80000001"
         style="stop-color:#ffffff;stop-opacity:1;" />
      <stop
         style="stop-color:#ffffff;stop-opacity:0;"
         offset="1"
         id="stop12747-6" />
    </linearGradient>
    <linearGradient
       id="linearGradient13461">
      <stop
         style="stop-color:#ffffff;stop-opacity:0;"
         offset="0"
         id="stop13463" />
      <stop
         id="stop13465"
         offset="0.2"
         style="stop-color:#ffffff;stop-opacity:1;" />
      <stop
         id="stop13467"
         offset="0.80000001"
         style="stop-color:#ffffff;stop-opacity:1;" />
      <stop
         style="stop-color:#ffffff;stop-opacity:0;"
         offset="1"
         id="stop13469" />
    </linearGradient>
    <linearGradient
       id="linearGradient13472">
      <stop
         style="stop-color:#ffffff;stop-opacity:0;"
         offset="0"
         id="stop13474" />
      <stop
         id="stop13476"
         offset="0.2"
         style="stop-color:#ffffff;stop-opacity:1;" />
      <stop
         id="stop13478"
         offset="0.80000001"
         style="stop-color:#ffffff;stop-opacity:1;" />
      <stop
         style="stop-color:#ffffff;stop-opacity:0;"
         offset="1"
         id="stop13480" />
    </linearGradient>
    <linearGradient
       id="linearGradient13483">
      <stop
         style="stop-color:#ffffff;stop-opacity:0;"
         offset="0"
         id="stop13485" />
      <stop
         id="stop13487"
         offset="0.2"
         style="stop-color:#ffffff;stop-opacity:1;" />
      <stop
         id="stop13489"
         offset="0.80000001"
         style="stop-color:#ffffff;stop-opacity:1;" />
      <stop
         style="stop-color:#ffffff;stop-opacity:0;"
         offset="1"
         id="stop13491" />
    </linearGradient>
    <linearGradient
       id="linearGradient13494">
      <stop
         style="stop-color:#ffffff;stop-opacity:0;"
         offset="0"
         id="stop13496" />
      <stop
         id="stop13498"
         offset="0.2"
         style="stop-color:#ffffff;stop-opacity:1;" />
      <stop
         id="stop13500"
         offset="0.80000001"
         style="stop-color:#ffffff;stop-opacity:1;" />
      <stop
         style="stop-color:#ffffff;stop-opacity:0;"
         offset="1"
         id="stop13502" />
    </linearGradient>
    <linearGradient
       id="linearGradient13505">
      <stop
         style="stop-color:#ffffff;stop-opacity:0;"
         offset="0"
         id="stop13507" />
      <stop
         id="stop13509"
         offset="0.2"
         style="stop-color:#ffffff;stop-opacity:1;" />
      <stop
         id="stop13511"
         offset="0.80000001"
         style="stop-color:#ffffff;stop-opacity:1;" />
      <stop
         style="stop-color:#ffffff;stop-opacity:0;"
         offset="1"
         id="stop13513" />
    </linearGradient>
    <linearGradient
       id="linearGradient13516">
      <stop
         style="stop-color:#ffffff;stop-opacity:0;"
         offset="0"
         id="stop13518" />
      <stop
         id="stop13520"
         offset="0.2"
         style="stop-color:#ffffff;stop-opacity:1;" />
      <stop
         id="stop13522"
         offset="0.80000001"
         style="stop-color:#ffffff;stop-opacity:1;" />
      <stop
         style="stop-color:#ffffff;stop-opacity:0;"
         offset="1"
         id="stop13524" />
    </linearGradient>
    <linearGradient
       id="linearGradient13527">
      <stop
         style="stop-color:#ffffff;stop-opacity:0;"
         offset="0"
         id="stop13529" />
      <stop
         id="stop13531"
         offset="0.2"
         style="stop-color:#ffffff;stop-opacity:1;" />
      <stop
         id="stop13533"
         offset="0.80000001"
         style="stop-color:#ffffff;stop-opacity:1;" />
      <stop
         style="stop-color:#ffffff;stop-opacity:0;"
         offset="1"
         id="stop13535" />
    </linearGradient>
    <linearGradient
       id="linearGradient13538">
      <stop
         style="stop-color:#ffffff;stop-opacity:0;"
         offset="0"
         id="stop13540" />
      <stop
         id="stop13542"
         offset="0.2"
         style="stop-color:#ffffff;stop-opacity:1;" />
      <stop
         id="stop13544"
         offset="0.80000001"
         style="stop-color:#ffffff;stop-opacity:1;" />
      <stop
         style="stop-color:#ffffff;stop-opacity:0;"
         offset="1"
         id="stop13546" />
    </linearGradient>
    <linearGradient
       id="linearGradient13549">
      <stop
         style="stop-color:#ffffff;stop-opacity:0;"
         offset="0"
         id="stop13551" />
      <stop
         id="stop13553"
         offset="0.2"
         style="stop-color:#ffffff;stop-opacity:1;" />
      <stop
         id="stop13555"
         offset="0.80000001"
         style="stop-color:#ffffff;stop-opacity:1;" />
      <stop
         style="stop-color:#ffffff;stop-opacity:0;"
         offset="1"
         id="stop13557" />
    </linearGradient>
    <linearGradient
       id="linearGradient13560">
      <stop
         style="stop-color:#ffffff;stop-opacity:0;"
         offset="0"
         id="stop13562" />
      <stop
         id="stop13564"
         offset="0.2"
         style="stop-color:#ffffff;stop-opacity:1;" />
      <stop
         id="stop13566"
         offset="0.80000001"
         style="stop-color:#ffffff;stop-opacity:1;" />
      <stop
         style="stop-color:#ffffff;stop-opacity:0;"
         offset="1"
         id="stop13568" />
    </linearGradient>
    <linearGradient
       y2="4570"
       x2="1080.0625"
       y1="4570"
       x1="79.9375"
       gradientUnits="userSpaceOnUse"
       id="linearGradient13418-4"
       xlink:href="#linearGradient12741-9"
       inkscape:collect="always" />
    <linearGradient
       id="linearGradient13571">
      <stop
         style="stop-color:#ffffff;stop-opacity:0;"
         offset="0"
         id="stop13573" />
      <stop
         id="stop13575"
         offset="0.2"
         style="stop-color:#ffffff;stop-opacity:1;" />
      <stop
         id="stop13577"
         offset="0.80000001"
         style="stop-color:#ffffff;stop-opacity:1;" />
      <stop
         style="stop-color:#ffffff;stop-opacity:0;"
         offset="1"
         id="stop13579" />
    </linearGradient>
    <clipPath
       id="clipPath16705-6"
       clipPathUnits="userSpaceOnUse">
      <path
         id="path16707-3"
         d="m 39.0786,6711.92 155.8424,0 0,-155.84 -155.8424,0 0,155.84 z"
         inkscape:connector-curvature="0" />
    </clipPath>
    <clipPath
       id="clipPath16721-9"
       clipPathUnits="userSpaceOnUse">
      <path
         id="path16723-9"
         d="m 47.3164,6703.68 139.3666,0 0,-139.36 -139.3666,0 0,139.36 z"
         inkscape:connector-curvature="0" />
    </clipPath>
    <clipPath
       id="clipPath16737-2"
       clipPathUnits="userSpaceOnUse">
      <path
         id="path16739-3"
         d="m 55.4277,6695.57 123.1443,0 0,-123.14 -123.1443,0 0,123.14 z"
         inkscape:connector-curvature="0" />
    </clipPath>
    <clipPath
       id="clipPath16753-4"
       clipPathUnits="userSpaceOnUse">
      <path
         id="path16755-5"
         d="m 63.6021,6687.4 106.7959,0 0,-106.8 -106.7959,0 0,106.8 z"
         inkscape:connector-curvature="0" />
    </clipPath>
    <clipPath
       id="clipPath16769-9"
       clipPathUnits="userSpaceOnUse">
      <path
         id="path16771-9"
         d="m 71.5591,6679.44 90.8819,0 0,-90.88 -90.8819,0 0,90.88 z"
         inkscape:connector-curvature="0" />
    </clipPath>
    <clipPath
       id="clipPath16785-2"
       clipPathUnits="userSpaceOnUse">
      <path
         id="path16787-5"
         d="m 79.4243,6671.58 75.1517,0 0,-75.16 -75.1517,0 0,75.16 z"
         inkscape:connector-curvature="0" />
    </clipPath>
    <clipPath
       id="clipPath16839-6"
       clipPathUnits="userSpaceOnUse">
      <path
         id="path16841-0"
         d="m 31.4937,6636.5 88.0063,0 0,-88.01 -88.0063,0 0,88.01 z"
         inkscape:connector-curvature="0" />
    </clipPath>
    <clipPath
       id="clipPath16855-6"
       clipPathUnits="userSpaceOnUse">
      <path
         id="path16857-0"
         d="m 40.0786,6710.92 79.4214,0 0,-153.84 -79.4214,0 0,153.84 z"
         inkscape:connector-curvature="0" />
    </clipPath>
    <clipPath
       id="clipPath16871-9"
       clipPathUnits="userSpaceOnUse">
      <path
         id="path16873-1"
         d="m 48.3164,6702.68 137.3666,0 0,-137.36 -137.3666,0 0,137.36 z"
         inkscape:connector-curvature="0" />
    </clipPath>
    <clipPath
       id="clipPath16887-4"
       clipPathUnits="userSpaceOnUse">
      <path
         id="path16889-0"
         d="m 56.4277,6682.61 63.0723,0 0,-109.18 -63.0723,0 0,109.18 z"
         inkscape:connector-curvature="0" />
    </clipPath>
    <clipPath
       id="clipPath16903-6"
       clipPathUnits="userSpaceOnUse">
      <path
         id="path16905-9"
         d="m 64.6021,6669.22 54.8979,0 0,-87.62 -54.8979,0 0,87.62 z"
         inkscape:connector-curvature="0" />
    </clipPath>
    <clipPath
       id="clipPath16919-8"
       clipPathUnits="userSpaceOnUse">
      <path
         id="path16921-1"
         d="m 79.7573,6613 39.7427,0 0,-23.44 -39.7427,0 0,23.44 z"
         inkscape:connector-curvature="0" />
    </clipPath>
    <clipPath
       id="clipPath16935-4"
       clipPathUnits="userSpaceOnUse">
      <path
         id="path16937-0"
         d="m 81.2959,6628.81 38.2041,0 0,-31.39 -38.2041,0 0,31.39 z"
         inkscape:connector-curvature="0" />
    </clipPath>
    <clipPath
       id="clipPath26673-2"
       clipPathUnits="userSpaceOnUse">
      <path
         id="path26675-3"
         d="m 35,55 2,0 0,-20 -2,0 0,20 z"
         inkscape:connector-curvature="0" />
    </clipPath>
    <clipPath
       id="clipPath26659-2"
       clipPathUnits="userSpaceOnUse">
      <path
         id="path26661-3"
         d="m 35,78 2,0 0,-20 -2,0 0,20 z"
         inkscape:connector-curvature="0" />
    </clipPath>
    <clipPath
       id="clipPath26645-9"
       clipPathUnits="userSpaceOnUse">
      <path
         id="path26647-7"
         d="m 35,101 2,0 0,-20 -2,0 0,20 z"
         inkscape:connector-curvature="0" />
    </clipPath>
    <clipPath
       id="clipPath26631-7"
       clipPathUnits="userSpaceOnUse">
      <path
         id="path26633-3"
         d="m 35,124 2,0 0,-20 -2,0 0,20 z"
         inkscape:connector-curvature="0" />
    </clipPath>
    <clipPath
       id="clipPath26617-4"
       clipPathUnits="userSpaceOnUse">
      <path
         id="path26619-7"
         d="m 35,147 2,0 0,-20 -2,0 0,20 z"
         inkscape:connector-curvature="0" />
    </clipPath>
    <clipPath
       id="clipPath26603-7"
       clipPathUnits="userSpaceOnUse">
      <path
         id="path26605-3"
         d="m 35,170 2,0 0,-20 -2,0 0,20 z"
         inkscape:connector-curvature="0" />
    </clipPath>
    <clipPath
       id="clipPath26587-7"
       clipPathUnits="userSpaceOnUse">
      <path
         id="path26589-0"
         d="m 46,55 106,0 0,-20 -106,0 0,20 z"
         inkscape:connector-curvature="0" />
    </clipPath>
    <clipPath
       id="clipPath26573-6"
       clipPathUnits="userSpaceOnUse">
      <path
         id="path26575-3"
         d="m 46,78 94,0 0,-20 -94,0 0,20 z"
         inkscape:connector-curvature="0" />
    </clipPath>
    <clipPath
       id="clipPath26559-2"
       clipPathUnits="userSpaceOnUse">
      <path
         id="path26561-2"
         d="m 46,101 204,0 0,-20 -204,0 0,20 z"
         inkscape:connector-curvature="0" />
    </clipPath>
    <clipPath
       id="clipPath26545-8"
       clipPathUnits="userSpaceOnUse">
      <path
         id="path26547-2"
         d="m 46,124 171,0 0,-20 -171,0 0,20 z"
         inkscape:connector-curvature="0" />
    </clipPath>
    <clipPath
       id="clipPath26531-5"
       clipPathUnits="userSpaceOnUse">
      <path
         id="path26533-2"
         d="m 46,147 273,0 0,-20 -273,0 0,20 z"
         inkscape:connector-curvature="0" />
    </clipPath>
    <clipPath
       id="clipPath26517-0"
       clipPathUnits="userSpaceOnUse">
      <path
         id="path26519-4"
         d="m 46,170 143,0 0,-20 -143,0 0,20 z"
         inkscape:connector-curvature="0" />
    </clipPath>
    <clipPath
       id="clipPath26517-0-2"
       clipPathUnits="userSpaceOnUse">
      <path
         id="path26519-4-1"
         d="m 46,170 143,0 0,-20 -143,0 0,20 z"
         inkscape:connector-curvature="0" />
    </clipPath>
    <clipPath
       id="clipPath26531-5-2"
       clipPathUnits="userSpaceOnUse">
      <path
         id="path26533-2-9"
         d="m 46,147 273,0 0,-20 -273,0 0,20 z"
         inkscape:connector-curvature="0" />
    </clipPath>
    <clipPath
       id="clipPath26545-8-5"
       clipPathUnits="userSpaceOnUse">
      <path
         id="path26547-2-0"
         d="m 46,124 171,0 0,-20 -171,0 0,20 z"
         inkscape:connector-curvature="0" />
    </clipPath>
    <clipPath
       id="clipPath26559-2-4"
       clipPathUnits="userSpaceOnUse">
      <path
         id="path26561-2-1"
         d="m 46,101 204,0 0,-20 -204,0 0,20 z"
         inkscape:connector-curvature="0" />
    </clipPath>
    <clipPath
       id="clipPath26573-6-7"
       clipPathUnits="userSpaceOnUse">
      <path
         id="path26575-3-5"
         d="m 46,78 94,0 0,-20 -94,0 0,20 z"
         inkscape:connector-curvature="0" />
    </clipPath>
    <clipPath
       id="clipPath26587-7-0"
       clipPathUnits="userSpaceOnUse">
      <path
         id="path26589-0-0"
         d="m 46,55 106,0 0,-20 -106,0 0,20 z"
         inkscape:connector-curvature="0" />
    </clipPath>
    <clipPath
       id="clipPath26603-7-0"
       clipPathUnits="userSpaceOnUse">
      <path
         id="path26605-3-3"
         d="m 35,170 2,0 0,-20 -2,0 0,20 z"
         inkscape:connector-curvature="0" />
    </clipPath>
    <clipPath
       id="clipPath26617-4-6"
       clipPathUnits="userSpaceOnUse">
      <path
         id="path26619-7-3"
         d="m 35,147 2,0 0,-20 -2,0 0,20 z"
         inkscape:connector-curvature="0" />
    </clipPath>
    <clipPath
       id="clipPath26631-7-1"
       clipPathUnits="userSpaceOnUse">
      <path
         id="path26633-3-7"
         d="m 35,124 2,0 0,-20 -2,0 0,20 z"
         inkscape:connector-curvature="0" />
    </clipPath>
    <clipPath
       id="clipPath26645-9-2"
       clipPathUnits="userSpaceOnUse">
      <path
         id="path26647-7-5"
         d="m 35,101 2,0 0,-20 -2,0 0,20 z"
         inkscape:connector-curvature="0" />
    </clipPath>
    <clipPath
       id="clipPath26659-2-9"
       clipPathUnits="userSpaceOnUse">
      <path
         id="path26661-3-0"
         d="m 35,78 2,0 0,-20 -2,0 0,20 z"
         inkscape:connector-curvature="0" />
    </clipPath>
    <clipPath
       id="clipPath26673-2-9"
       clipPathUnits="userSpaceOnUse">
      <path
         id="path26675-3-2"
         d="m 35,55 2,0 0,-20 -2,0 0,20 z"
         inkscape:connector-curvature="0" />
    </clipPath>
    <clipPath
       id="clipPath26517-0-2-7"
       clipPathUnits="userSpaceOnUse">
      <path
         id="path26519-4-1-3"
         d="m 46,170 143,0 0,-20 -143,0 0,20 z"
         inkscape:connector-curvature="0" />
    </clipPath>
    <clipPath
       id="clipPath26531-5-2-9"
       clipPathUnits="userSpaceOnUse">
      <path
         id="path26533-2-9-0"
         d="m 46,147 273,0 0,-20 -273,0 0,20 z"
         inkscape:connector-curvature="0" />
    </clipPath>
    <clipPath
       id="clipPath26545-8-5-5"
       clipPathUnits="userSpaceOnUse">
      <path
         id="path26547-2-0-1"
         d="m 46,124 171,0 0,-20 -171,0 0,20 z"
         inkscape:connector-curvature="0" />
    </clipPath>
    <clipPath
       id="clipPath26559-2-4-0"
       clipPathUnits="userSpaceOnUse">
      <path
         id="path26561-2-1-3"
         d="m 46,101 204,0 0,-20 -204,0 0,20 z"
         inkscape:connector-curvature="0" />
    </clipPath>
    <clipPath
       id="clipPath26573-6-7-4"
       clipPathUnits="userSpaceOnUse">
      <path
         id="path26575-3-5-9"
         d="m 46,78 94,0 0,-20 -94,0 0,20 z"
         inkscape:connector-curvature="0" />
    </clipPath>
    <clipPath
       id="clipPath26587-7-0-3"
       clipPathUnits="userSpaceOnUse">
      <path
         id="path26589-0-0-2"
         d="m 46,55 106,0 0,-20 -106,0 0,20 z"
         inkscape:connector-curvature="0" />
    </clipPath>
    <clipPath
       id="clipPath26603-7-0-5"
       clipPathUnits="userSpaceOnUse">
      <path
         id="path26605-3-3-1"
         d="m 35,170 2,0 0,-20 -2,0 0,20 z"
         inkscape:connector-curvature="0" />
    </clipPath>
    <clipPath
       id="clipPath26617-4-6-0"
       clipPathUnits="userSpaceOnUse">
      <path
         id="path26619-7-3-0"
         d="m 35,147 2,0 0,-20 -2,0 0,20 z"
         inkscape:connector-curvature="0" />
    </clipPath>
    <clipPath
       id="clipPath26631-7-1-3"
       clipPathUnits="userSpaceOnUse">
      <path
         id="path26633-3-7-5"
         d="m 35,124 2,0 0,-20 -2,0 0,20 z"
         inkscape:connector-curvature="0" />
    </clipPath>
    <clipPath
       id="clipPath26645-9-2-6"
       clipPathUnits="userSpaceOnUse">
      <path
         id="path26647-7-5-3"
         d="m 35,101 2,0 0,-20 -2,0 0,20 z"
         inkscape:connector-curvature="0" />
    </clipPath>
    <clipPath
       id="clipPath26659-2-9-9"
       clipPathUnits="userSpaceOnUse">
      <path
         id="path26661-3-0-5"
         d="m 35,78 2,0 0,-20 -2,0 0,20 z"
         inkscape:connector-curvature="0" />
    </clipPath>
    <clipPath
       id="clipPath26673-2-9-7"
       clipPathUnits="userSpaceOnUse">
      <path
         id="path26675-3-2-7"
         d="m 35,55 2,0 0,-20 -2,0 0,20 z"
         inkscape:connector-curvature="0" />
    </clipPath>
    <linearGradient
       id="linearGradient18764-2">
      <stop
         style="stop-color:#bda784;stop-opacity:0.9878788;"
         offset="0"
         id="stop18766-8" />
      <stop
         style="stop-color:#bda784;stop-opacity:0.68484849;"
         offset="1"
         id="stop18768-8" />
    </linearGradient>
    <clipPath
       clipPathUnits="userSpaceOnUse"
       id="clipPath3142">
      <path
         inkscape:connector-curvature="0"
         d="m 161,978 36.332,0 0,-89.335 -36.332,0 0,89.335 z"
         id="path3144" />
    </clipPath>
    <clipPath
       id="clipPath26587-7-0-3-4"
       clipPathUnits="userSpaceOnUse">
      <path
         id="path26589-0-0-2-7"
         d="m 46,55 106,0 0,-20 -106,0 0,20 z"
         inkscape:connector-curvature="0" />
    </clipPath>
    <linearGradient
       inkscape:collect="always"
       xlink:href="#linearGradient68693"
       id="linearGradient68783"
       gradientUnits="userSpaceOnUse"
       gradientTransform="matrix(8.7928745,0,0,4.42226,-1690.0418,-8310.7344)"
       x1="279.37509"
       y1="2429.0149"
       x2="279.8754"
       y2="2618.5195" />
    <linearGradient
       inkscape:collect="always"
       xlink:href="#linearGradient68693"
       id="linearGradient69347"
       gradientUnits="userSpaceOnUse"
       gradientTransform="matrix(8.7928745,0,0,3.9684452,-1710.0418,-7197.4114)"
       x1="279.37509"
       y1="2429.0149"
       x2="279.8754"
       y2="2618.5195" />
    <linearGradient
       inkscape:collect="always"
       xlink:href="#linearGradient68693"
       id="linearGradient69455"
       gradientUnits="userSpaceOnUse"
       gradientTransform="matrix(8.7928745,0,0,2.9763849,-1710.0418,-4787.6821)"
       x1="279.37509"
       y1="2429.0149"
       x2="279.8754"
       y2="2618.5195" />
    <clipPath
       id="clipPath26517-0-2-7-6"
       clipPathUnits="userSpaceOnUse">
      <path
         id="path26519-4-1-3-5"
         d="m 46,170 143,0 0,-20 -143,0 0,20 z"
         inkscape:connector-curvature="0" />
    </clipPath>
    <clipPath
       id="clipPath26531-5-2-9-6"
       clipPathUnits="userSpaceOnUse">
      <path
         id="path26533-2-9-0-5"
         d="m 46,147 273,0 0,-20 -273,0 0,20 z"
         inkscape:connector-curvature="0" />
    </clipPath>
    <clipPath
       id="clipPath26545-8-5-5-1"
       clipPathUnits="userSpaceOnUse">
      <path
         id="path26547-2-0-1-6"
         d="m 46,124 171,0 0,-20 -171,0 0,20 z"
         inkscape:connector-curvature="0" />
    </clipPath>
    <clipPath
       id="clipPath26559-2-4-0-9"
       clipPathUnits="userSpaceOnUse">
      <path
         id="path26561-2-1-3-2"
         d="m 46,101 204,0 0,-20 -204,0 0,20 z"
         inkscape:connector-curvature="0" />
    </clipPath>
    <clipPath
       id="clipPath26573-6-7-4-0"
       clipPathUnits="userSpaceOnUse">
      <path
         id="path26575-3-5-9-9"
         d="m 46,78 94,0 0,-20 -94,0 0,20 z"
         inkscape:connector-curvature="0" />
    </clipPath>
    <clipPath
       id="clipPath26587-7-0-3-1"
       clipPathUnits="userSpaceOnUse">
      <path
         id="path26589-0-0-2-2"
         d="m 46,55 106,0 0,-20 -106,0 0,20 z"
         inkscape:connector-curvature="0" />
    </clipPath>
    <clipPath
       id="clipPath26603-7-0-5-3"
       clipPathUnits="userSpaceOnUse">
      <path
         id="path26605-3-3-1-1"
         d="m 35,170 2,0 0,-20 -2,0 0,20 z"
         inkscape:connector-curvature="0" />
    </clipPath>
    <clipPath
       id="clipPath26617-4-6-0-8"
       clipPathUnits="userSpaceOnUse">
      <path
         id="path26619-7-3-0-2"
         d="m 35,147 2,0 0,-20 -2,0 0,20 z"
         inkscape:connector-curvature="0" />
    </clipPath>
    <clipPath
       id="clipPath26631-7-1-3-0"
       clipPathUnits="userSpaceOnUse">
      <path
         id="path26633-3-7-5-2"
         d="m 35,124 2,0 0,-20 -2,0 0,20 z"
         inkscape:connector-curvature="0" />
    </clipPath>
    <clipPath
       id="clipPath26645-9-2-6-4"
       clipPathUnits="userSpaceOnUse">
      <path
         id="path26647-7-5-3-6"
         d="m 35,101 2,0 0,-20 -2,0 0,20 z"
         inkscape:connector-curvature="0" />
    </clipPath>
    <clipPath
       id="clipPath26659-2-9-9-9"
       clipPathUnits="userSpaceOnUse">
      <path
         id="path26661-3-0-5-7"
         d="m 35,78 2,0 0,-20 -2,0 0,20 z"
         inkscape:connector-curvature="0" />
    </clipPath>
    <clipPath
       id="clipPath26673-2-9-7-2"
       clipPathUnits="userSpaceOnUse">
      <path
         id="path26675-3-2-7-5"
         d="m 35,55 2,0 0,-20 -2,0 0,20 z"
         inkscape:connector-curvature="0" />
    </clipPath>
    <linearGradient
       inkscape:collect="always"
       xlink:href="#linearGradient68693"
       id="linearGradient69658"
       gradientUnits="userSpaceOnUse"
       gradientTransform="matrix(8.7928745,0,0,2.7389237,-1710.0418,-4165.8852)"
       x1="279.37509"
       y1="2429.0149"
       x2="279.8754"
       y2="2618.5195" />
    <linearGradient
       inkscape:collect="always"
       xlink:href="#linearGradient68693"
       id="linearGradient69688"
       gradientUnits="userSpaceOnUse"
       gradientTransform="matrix(8.7928745,0,0,2.2165089,-1710.0418,-2935.932)"
       x1="279.99084"
       y1="2443.5425"
       x2="279.8754"
       y2="2618.5195" />
    <mask
       maskUnits="userSpaceOnUse"
       id="mask69684">
      <rect
         y="2448.0012"
         x="69.96257"
         height="420.0387"
         width="1287.0228"
         id="rect69686"
         style="fill:url(#linearGradient69688);fill-opacity:1;fill-rule:nonzero;stroke:none" />
    </mask>
    <linearGradient
       inkscape:collect="always"
       xlink:href="#linearGradient9577"
       id="linearGradient9583"
       x1="1311.9058"
       y1="1957.6202"
       x2="1334.438"
       y2="1962.9236"
       gradientUnits="userSpaceOnUse" />
  </defs>
  <metadata
     id="metadata7261">
    <rdf:RDF>
      <cc:Work
         rdf:about="">
        <dc:format>image/svg+xml</dc:format>
        <dc:type
           rdf:resource="http://purl.org/dc/dcmitype/StillImage" />
        <dc:title></dc:title>
      </cc:Work>
    </rdf:RDF>
  </metadata>
  <g
     transform="translate(-236.51515,-2136.4842)"
     style="display:inline"
     inkscape:label="timeline"
     id="layer6"
     inkscape:groupmode="layer">
    <path
       style="fill:#ffffff;fill-opacity:1;display:inline"
       d="m 252.20934,2154.3024 c -0.30915,-0.2503 -0.20198,-0.5384 0.23605,-0.6346 0.31858,-0.07 0.25069,-0.091 0.28016,-0.5409 0.0161,-0.2497 -0.006,-0.5509 0.0506,-0.6523 0.15198,-0.2716 -0.0534,-0.4594 -1.05075,-0.9609 -1.79181,-0.9009 -3.09047,-1.9912 -4.84626,-4.0686 l -0.44264,-0.5238 -0.64569,0.1466 -0.64575,0.1467 0.65327,0.4582 c 0.35928,0.2521 0.83677,0.704 1.06106,1.0045 0.25282,0.3387 0.46594,0.5239 0.56074,0.4876 0.22148,-0.085 0.94466,0.5883 0.94466,0.8794 0,0.2917 -1.33553,1.8758 -1.77151,2.1012 -0.73594,0.3805 -1.01024,0.066 -0.52557,-0.6032 0.26932,-0.3719 0.32268,-0.5512 0.32268,-1.0854 0,-0.788 -0.18184,-0.9873 -1.20663,-1.3228 -0.63855,-0.209 -1.70198,-0.8315 -2.22123,-1.3003 -0.62143,-0.5611 0.31123,-2.0405 1.92155,-3.0479 0.30337,-0.1898 0.51061,-0.3964 0.49357,-0.4918 -0.0161,-0.09 -0.43892,-0.3667 -0.93944,-0.6139 -0.50052,-0.2472 -0.96514,-0.5045 -1.03253,-0.5718 -0.11754,-0.1176 -0.36841,0.3142 -1.01849,1.7531 -0.21996,0.487 -0.41319,0.5772 -0.80272,0.375 -0.39102,-0.2031 -1.72291,-1.5911 -1.81992,-1.8967 -0.042,-0.1326 -0.17271,-0.2716 -0.29027,-0.3089 -0.11754,-0.037 -0.21379,-0.1138 -0.21379,-0.1701 0,-0.057 -0.13572,-0.1055 -0.30163,-0.1093 l -0.30166,-0.01 0.27428,-0.1103 c 0.26654,-0.1072 0.26827,-0.1146 0.0612,-0.2673 -0.11707,-0.086 -0.3051,-0.1569 -0.41779,-0.1569 -0.11623,0 -0.17382,-0.05 -0.13313,-0.1162 0.0426,-0.069 0.2122,-0.086 0.41782,-0.042 l 0.34604,0.074 -0.24681,-0.2667 c -0.25121,-0.2714 -0.35552,-0.5696 -0.11517,-0.3293 0.0724,0.072 0.181,0.1316 0.2413,0.1316 0.0609,0 0.0513,-0.059 -0.022,-0.1316 -0.0724,-0.072 -0.13161,-0.1808 -0.13161,-0.2409 0,-0.06 0.16271,0.048 0.3617,0.2413 0.42897,0.4158 0.51331,0.4325 0.52331,0.1038 0.004,-0.1357 0.10618,0.059 0.22669,0.4317 0.18229,0.5643 0.31883,0.7636 0.81168,1.1847 l 0.59253,0.5061 0.065,-0.3071 c 0.0358,-0.1689 0.13605,-0.4692 0.22284,-0.6674 0.21304,-0.4862 0.20166,-0.5569 -0.11314,-0.7003 -0.20883,-0.095 -0.31076,-0.09 -0.44433,0.02 -0.14681,0.1219 -0.18221,0.1117 -0.2315,-0.066 -0.032,-0.1155 -0.26395,-0.3087 -0.51549,-0.4294 -0.81877,-0.3927 -0.9215,-1.4162 -0.2252,-2.2437 0.22584,-0.2684 0.36612,-0.334 0.71437,-0.334 0.36078,0 0.50536,0.074 0.86343,0.4388 0.33148,0.3381 0.51282,0.4381 0.79092,0.4361 0.56435,-0.01 1.23432,-0.1892 2.00634,-0.554 1.35386,-0.6396 1.95606,-0.7245 3.71668,-0.5242 1.17618,0.1338 1.19688,0.1323 1.38872,-0.1046 0.26574,-0.3282 0.37103,-0.3044 0.14951,0.034 -0.21467,0.3276 -0.052,0.3659 0.23003,0.055 0.10953,-0.1211 0.22434,-0.1949 0.25515,-0.1642 0.0307,0.031 -0.0635,0.1857 -0.2096,0.3444 l -0.26552,0.2883 0.42215,-0.076 c 0.27823,-0.05 0.39842,-0.038 0.35265,0.036 -0.0382,0.062 -0.24053,0.1445 -0.44958,0.1838 -0.49602,0.093 -0.48932,0.2662 0.0104,0.2662 0.2256,0 0.36249,0.045 0.32427,0.107 -0.0379,0.061 -0.28632,0.078 -0.58233,0.038 l -0.51629,-0.069 0.20899,0.2358 c 0.26873,0.3033 0.19077,0.2969 -0.51114,-0.042 -0.62709,-0.3026 -0.59038,-0.2983 -1.96136,-0.2296 -0.7043,0.036 -1.05593,0.1086 -1.3711,0.2856 l -0.4239,0.2381 1.10351,1.1161 c 0.60696,0.6139 1.298,1.2629 1.53568,1.4424 0.23766,0.1795 0.51685,0.4262 0.62039,0.5484 0.24864,0.2935 0.49951,1.0655 0.58896,1.8127 0.042,0.3513 0.19567,0.8094 0.36779,1.0969 0.16252,0.2715 0.36302,0.7404 0.4455,1.042 0.24169,0.8836 0.72039,1.5671 1.28283,1.8315 0.31663,0.1489 0.64812,0.4402 0.93872,0.8252 0.42168,0.5585 1.24273,1.2374 1.49644,1.2374 0.0625,0 0.28801,0.1531 0.50127,0.3404 0.51241,0.4499 0.50123,0.7486 -0.0672,1.8025 -0.35287,0.6542 -0.53667,0.8776 -0.81915,0.9957 -0.48931,0.2043 -0.84669,0.1915 -1.13365,-0.041 z"
       id="path9302"
       inkscape:connector-curvature="0"
       sodipodi:nodetypes="sssssscccssssssssssssssssssscscscscsssssscsscssssssssssssssscscscsscscsssscsssssssssssss" />
  </g>
</svg>
