<?xml version="1.0" encoding="UTF-8" standalone="no"?>
<!-- Created with Inkscape (http://www.inkscape.org/) -->

<svg
   xmlns:dc="http://purl.org/dc/elements/1.1/"
   xmlns:cc="http://creativecommons.org/ns#"
   xmlns:rdf="http://www.w3.org/1999/02/22-rdf-syntax-ns#"
   xmlns:svg="http://www.w3.org/2000/svg"
   xmlns="http://www.w3.org/2000/svg"
   xmlns:xlink="http://www.w3.org/1999/xlink"
   xmlns:sodipodi="http://sodipodi.sourceforge.net/DTD/sodipodi-0.dtd"
   xmlns:inkscape="http://www.inkscape.org/namespaces/inkscape"
   inkscape:export-ydpi="200"
   inkscape:export-xdpi="200"
   inkscape:export-filename="/home/dnyeupe/Dropbox/CV/infoCV/DavidTorralba-InfographicCV.png"
   sodipodi:docname="past_coach.svg"
   inkscape:version="0.48.4 r9939"
   version="1.1"
   id="svg7256"
   height="20"
   width="20">
  <sodipodi:namedview
     id="base"
     pagecolor="#000000"
     bordercolor="#666666"
     borderopacity="1.0"
     inkscape:pageopacity="0.36470588"
     inkscape:pageshadow="2"
     inkscape:zoom="9.8006675"
     inkscape:cx="8.3055178"
     inkscape:cy="2.9688544"
     inkscape:document-units="px"
     inkscape:current-layer="layer6"
     showgrid="false"
     inkscape:window-width="1535"
     inkscape:window-height="876"
     inkscape:window-x="65"
     inkscape:window-y="24"
     inkscape:window-maximized="1"
     showguides="true"
     inkscape:guide-bbox="true"
     inkscape:snap-global="true"
     fit-margin-top="0"
     fit-margin-left="0"
     fit-margin-right="0"
     fit-margin-bottom="0"
     inkscape:snap-grids="true"
     height="1052.36px">
    <inkscape:grid
       originy="-2843.5157px"
       originx="-236.51515px"
       dotted="true"
       snapvisiblegridlinesonly="true"
       enabled="true"
       visible="true"
       empspacing="5"
       id="grid10841"
       type="xygrid" />
  </sodipodi:namedview>
  <defs
     id="defs7258">
    <linearGradient
       id="linearGradient9577">
      <stop
         style="stop-color:#ffffff;stop-opacity:1;"
         offset="0"
         id="stop9579" />
      <stop
         style="stop-color:#ddd1bf;stop-opacity:1;"
         offset="1"
         id="stop9581" />
    </linearGradient>
    <linearGradient
       id="linearGradient68693">
      <stop
         style="stop-color:#ffffff;stop-opacity:1;"
         offset="0"
         id="stop68695" />
      <stop
         style="stop-color:#000000;stop-opacity:1;"
         offset="1"
         id="stop68697" />
    </linearGradient>
    <linearGradient
       id="linearGradient18772">
      <stop
         style="stop-color:#cfaa75;stop-opacity:1;"
         offset="0"
         id="stop18774" />
      <stop
         style="stop-color:#cfaa75;stop-opacity:0.66060609;"
         offset="1"
         id="stop18776" />
    </linearGradient>
    <linearGradient
       id="linearGradient18764">
      <stop
         style="stop-color:#bda784;stop-opacity:1;"
         offset="0"
         id="stop18766" />
      <stop
         style="stop-color:#bda784;stop-opacity:1;"
         offset="1"
         id="stop18768" />
    </linearGradient>
    <linearGradient
       id="linearGradient12741">
      <stop
         style="stop-color:#ffffff;stop-opacity:0;"
         offset="0"
         id="stop12743" />
      <stop
         id="stop12749"
         offset="0.2"
         style="stop-color:#ffffff;stop-opacity:1;" />
      <stop
         id="stop12745"
         offset="0.80000001"
         style="stop-color:#ffffff;stop-opacity:1;" />
      <stop
         style="stop-color:#ffffff;stop-opacity:0;"
         offset="1"
         id="stop12747" />
    </linearGradient>
    <linearGradient
       id="linearGradient7496">
      <stop
         id="stop7498"
         offset="0"
         style="stop-color:#ffffff;stop-opacity:1;" />
      <stop
         style="stop-color:#ffffff;stop-opacity:1;"
         offset="0.2"
         id="stop7504" />
      <stop
         id="stop7500"
         offset="1"
         style="stop-color:#ffffff;stop-opacity:0;" />
    </linearGradient>
    <linearGradient
       id="linearGradient5981"
       inkscape:collect="always">
      <stop
         id="stop5983"
         offset="0"
         style="stop-color:#9291f7;stop-opacity:1;" />
      <stop
         id="stop5985"
         offset="1"
         style="stop-color:#9291f7;stop-opacity:0;" />
    </linearGradient>
    <marker
       style="overflow:visible"
       id="DotL"
       refX="0"
       refY="0"
       orient="auto"
       inkscape:stockid="DotL">
      <path
         inkscape:connector-curvature="0"
         transform="matrix(0.8,0,0,0.8,5.92,0.8)"
         style="fill-rule:evenodd;stroke:#000000;stroke-width:1pt"
         d="m -2.5,-1 c 0,2.76 -2.24,5 -5,5 -2.76,0 -5,-2.24 -5,-5 0,-2.76 2.24,-5 5,-5 2.76,0 5,2.24 5,5 z"
         id="path4214" />
    </marker>
    <linearGradient
       gradientUnits="userSpaceOnUse"
       y2="1065.0002"
       x2="1817.9534"
       y1="1065.0002"
       x1="1280"
       id="linearGradient5987"
       xlink:href="#linearGradient5981"
       inkscape:collect="always" />
    <linearGradient
       spreadMethod="pad"
       gradientUnits="userSpaceOnUse"
       y2="4570"
       x2="1080.0625"
       y1="4570"
       x1="79.9375"
       id="linearGradient12753"
       xlink:href="#linearGradient12741"
       inkscape:collect="always" />
    <linearGradient
       gradientUnits="userSpaceOnUse"
       y2="4570"
       x2="1080.0625"
       y1="4570"
       x1="79.9375"
       id="linearGradient13006"
       xlink:href="#linearGradient12741"
       inkscape:collect="always" />
    <linearGradient
       gradientUnits="userSpaceOnUse"
       y2="4570"
       x2="1040.0625"
       y1="4570"
       x1="119.9375"
       id="linearGradient13008"
       xlink:href="#linearGradient12741"
       inkscape:collect="always" />
    <linearGradient
       gradientUnits="userSpaceOnUse"
       y2="4570"
       x2="1080.0625"
       y1="4570"
       x1="79.9375"
       id="linearGradient13416"
       xlink:href="#linearGradient12741"
       inkscape:collect="always" />
    <linearGradient
       id="linearGradient12741-9">
      <stop
         style="stop-color:#ffffff;stop-opacity:0;"
         offset="0"
         id="stop12743-9" />
      <stop
         id="stop12749-2"
         offset="0.2"
         style="stop-color:#ffffff;stop-opacity:1;" />
      <stop
         id="stop12745-1"
         offset="0.80000001"
         style="stop-color:#ffffff;stop-opacity:1;" />
      <stop
         style="stop-color:#ffffff;stop-opacity:0;"
         offset="1"
         id="stop12747-6" />
    </linearGradient>
    <linearGradient
       id="linearGradient13461">
      <stop
         style="stop-color:#ffffff;stop-opacity:0;"
         offset="0"
         id="stop13463" />
      <stop
         id="stop13465"
         offset="0.2"
         style="stop-color:#ffffff;stop-opacity:1;" />
      <stop
         id="stop13467"
         offset="0.80000001"
         style="stop-color:#ffffff;stop-opacity:1;" />
      <stop
         style="stop-color:#ffffff;stop-opacity:0;"
         offset="1"
         id="stop13469" />
    </linearGradient>
    <linearGradient
       id="linearGradient13472">
      <stop
         style="stop-color:#ffffff;stop-opacity:0;"
         offset="0"
         id="stop13474" />
      <stop
         id="stop13476"
         offset="0.2"
         style="stop-color:#ffffff;stop-opacity:1;" />
      <stop
         id="stop13478"
         offset="0.80000001"
         style="stop-color:#ffffff;stop-opacity:1;" />
      <stop
         style="stop-color:#ffffff;stop-opacity:0;"
         offset="1"
         id="stop13480" />
    </linearGradient>
    <linearGradient
       id="linearGradient13483">
      <stop
         style="stop-color:#ffffff;stop-opacity:0;"
         offset="0"
         id="stop13485" />
      <stop
         id="stop13487"
         offset="0.2"
         style="stop-color:#ffffff;stop-opacity:1;" />
      <stop
         id="stop13489"
         offset="0.80000001"
         style="stop-color:#ffffff;stop-opacity:1;" />
      <stop
         style="stop-color:#ffffff;stop-opacity:0;"
         offset="1"
         id="stop13491" />
    </linearGradient>
    <linearGradient
       id="linearGradient13494">
      <stop
         style="stop-color:#ffffff;stop-opacity:0;"
         offset="0"
         id="stop13496" />
      <stop
         id="stop13498"
         offset="0.2"
         style="stop-color:#ffffff;stop-opacity:1;" />
      <stop
         id="stop13500"
         offset="0.80000001"
         style="stop-color:#ffffff;stop-opacity:1;" />
      <stop
         style="stop-color:#ffffff;stop-opacity:0;"
         offset="1"
         id="stop13502" />
    </linearGradient>
    <linearGradient
       id="linearGradient13505">
      <stop
         style="stop-color:#ffffff;stop-opacity:0;"
         offset="0"
         id="stop13507" />
      <stop
         id="stop13509"
         offset="0.2"
         style="stop-color:#ffffff;stop-opacity:1;" />
      <stop
         id="stop13511"
         offset="0.80000001"
         style="stop-color:#ffffff;stop-opacity:1;" />
      <stop
         style="stop-color:#ffffff;stop-opacity:0;"
         offset="1"
         id="stop13513" />
    </linearGradient>
    <linearGradient
       id="linearGradient13516">
      <stop
         style="stop-color:#ffffff;stop-opacity:0;"
         offset="0"
         id="stop13518" />
      <stop
         id="stop13520"
         offset="0.2"
         style="stop-color:#ffffff;stop-opacity:1;" />
      <stop
         id="stop13522"
         offset="0.80000001"
         style="stop-color:#ffffff;stop-opacity:1;" />
      <stop
         style="stop-color:#ffffff;stop-opacity:0;"
         offset="1"
         id="stop13524" />
    </linearGradient>
    <linearGradient
       id="linearGradient13527">
      <stop
         style="stop-color:#ffffff;stop-opacity:0;"
         offset="0"
         id="stop13529" />
      <stop
         id="stop13531"
         offset="0.2"
         style="stop-color:#ffffff;stop-opacity:1;" />
      <stop
         id="stop13533"
         offset="0.80000001"
         style="stop-color:#ffffff;stop-opacity:1;" />
      <stop
         style="stop-color:#ffffff;stop-opacity:0;"
         offset="1"
         id="stop13535" />
    </linearGradient>
    <linearGradient
       id="linearGradient13538">
      <stop
         style="stop-color:#ffffff;stop-opacity:0;"
         offset="0"
         id="stop13540" />
      <stop
         id="stop13542"
         offset="0.2"
         style="stop-color:#ffffff;stop-opacity:1;" />
      <stop
         id="stop13544"
         offset="0.80000001"
         style="stop-color:#ffffff;stop-opacity:1;" />
      <stop
         style="stop-color:#ffffff;stop-opacity:0;"
         offset="1"
         id="stop13546" />
    </linearGradient>
    <linearGradient
       id="linearGradient13549">
      <stop
         style="stop-color:#ffffff;stop-opacity:0;"
         offset="0"
         id="stop13551" />
      <stop
         id="stop13553"
         offset="0.2"
         style="stop-color:#ffffff;stop-opacity:1;" />
      <stop
         id="stop13555"
         offset="0.80000001"
         style="stop-color:#ffffff;stop-opacity:1;" />
      <stop
         style="stop-color:#ffffff;stop-opacity:0;"
         offset="1"
         id="stop13557" />
    </linearGradient>
    <linearGradient
       id="linearGradient13560">
      <stop
         style="stop-color:#ffffff;stop-opacity:0;"
         offset="0"
         id="stop13562" />
      <stop
         id="stop13564"
         offset="0.2"
         style="stop-color:#ffffff;stop-opacity:1;" />
      <stop
         id="stop13566"
         offset="0.80000001"
         style="stop-color:#ffffff;stop-opacity:1;" />
      <stop
         style="stop-color:#ffffff;stop-opacity:0;"
         offset="1"
         id="stop13568" />
    </linearGradient>
    <linearGradient
       y2="4570"
       x2="1080.0625"
       y1="4570"
       x1="79.9375"
       gradientUnits="userSpaceOnUse"
       id="linearGradient13418-4"
       xlink:href="#linearGradient12741-9"
       inkscape:collect="always" />
    <linearGradient
       id="linearGradient13571">
      <stop
         style="stop-color:#ffffff;stop-opacity:0;"
         offset="0"
         id="stop13573" />
      <stop
         id="stop13575"
         offset="0.2"
         style="stop-color:#ffffff;stop-opacity:1;" />
      <stop
         id="stop13577"
         offset="0.80000001"
         style="stop-color:#ffffff;stop-opacity:1;" />
      <stop
         style="stop-color:#ffffff;stop-opacity:0;"
         offset="1"
         id="stop13579" />
    </linearGradient>
    <clipPath
       id="clipPath16705-6"
       clipPathUnits="userSpaceOnUse">
      <path
         id="path16707-3"
         d="m 39.0786,6711.92 155.8424,0 0,-155.84 -155.8424,0 0,155.84 z"
         inkscape:connector-curvature="0" />
    </clipPath>
    <clipPath
       id="clipPath16721-9"
       clipPathUnits="userSpaceOnUse">
      <path
         id="path16723-9"
         d="m 47.3164,6703.68 139.3666,0 0,-139.36 -139.3666,0 0,139.36 z"
         inkscape:connector-curvature="0" />
    </clipPath>
    <clipPath
       id="clipPath16737-2"
       clipPathUnits="userSpaceOnUse">
      <path
         id="path16739-3"
         d="m 55.4277,6695.57 123.1443,0 0,-123.14 -123.1443,0 0,123.14 z"
         inkscape:connector-curvature="0" />
    </clipPath>
    <clipPath
       id="clipPath16753-4"
       clipPathUnits="userSpaceOnUse">
      <path
         id="path16755-5"
         d="m 63.6021,6687.4 106.7959,0 0,-106.8 -106.7959,0 0,106.8 z"
         inkscape:connector-curvature="0" />
    </clipPath>
    <clipPath
       id="clipPath16769-9"
       clipPathUnits="userSpaceOnUse">
      <path
         id="path16771-9"
         d="m 71.5591,6679.44 90.8819,0 0,-90.88 -90.8819,0 0,90.88 z"
         inkscape:connector-curvature="0" />
    </clipPath>
    <clipPath
       id="clipPath16785-2"
       clipPathUnits="userSpaceOnUse">
      <path
         id="path16787-5"
         d="m 79.4243,6671.58 75.1517,0 0,-75.16 -75.1517,0 0,75.16 z"
         inkscape:connector-curvature="0" />
    </clipPath>
    <clipPath
       id="clipPath16839-6"
       clipPathUnits="userSpaceOnUse">
      <path
         id="path16841-0"
         d="m 31.4937,6636.5 88.0063,0 0,-88.01 -88.0063,0 0,88.01 z"
         inkscape:connector-curvature="0" />
    </clipPath>
    <clipPath
       id="clipPath16855-6"
       clipPathUnits="userSpaceOnUse">
      <path
         id="path16857-0"
         d="m 40.0786,6710.92 79.4214,0 0,-153.84 -79.4214,0 0,153.84 z"
         inkscape:connector-curvature="0" />
    </clipPath>
    <clipPath
       id="clipPath16871-9"
       clipPathUnits="userSpaceOnUse">
      <path
         id="path16873-1"
         d="m 48.3164,6702.68 137.3666,0 0,-137.36 -137.3666,0 0,137.36 z"
         inkscape:connector-curvature="0" />
    </clipPath>
    <clipPath
       id="clipPath16887-4"
       clipPathUnits="userSpaceOnUse">
      <path
         id="path16889-0"
         d="m 56.4277,6682.61 63.0723,0 0,-109.18 -63.0723,0 0,109.18 z"
         inkscape:connector-curvature="0" />
    </clipPath>
    <clipPath
       id="clipPath16903-6"
       clipPathUnits="userSpaceOnUse">
      <path
         id="path16905-9"
         d="m 64.6021,6669.22 54.8979,0 0,-87.62 -54.8979,0 0,87.62 z"
         inkscape:connector-curvature="0" />
    </clipPath>
    <clipPath
       id="clipPath16919-8"
       clipPathUnits="userSpaceOnUse">
      <path
         id="path16921-1"
         d="m 79.7573,6613 39.7427,0 0,-23.44 -39.7427,0 0,23.44 z"
         inkscape:connector-curvature="0" />
    </clipPath>
    <clipPath
       id="clipPath16935-4"
       clipPathUnits="userSpaceOnUse">
      <path
         id="path16937-0"
         d="m 81.2959,6628.81 38.2041,0 0,-31.39 -38.2041,0 0,31.39 z"
         inkscape:connector-curvature="0" />
    </clipPath>
    <clipPath
       id="clipPath26673-2"
       clipPathUnits="userSpaceOnUse">
      <path
         id="path26675-3"
         d="m 35,55 2,0 0,-20 -2,0 0,20 z"
         inkscape:connector-curvature="0" />
    </clipPath>
    <clipPath
       id="clipPath26659-2"
       clipPathUnits="userSpaceOnUse">
      <path
         id="path26661-3"
         d="m 35,78 2,0 0,-20 -2,0 0,20 z"
         inkscape:connector-curvature="0" />
    </clipPath>
    <clipPath
       id="clipPath26645-9"
       clipPathUnits="userSpaceOnUse">
      <path
         id="path26647-7"
         d="m 35,101 2,0 0,-20 -2,0 0,20 z"
         inkscape:connector-curvature="0" />
    </clipPath>
    <clipPath
       id="clipPath26631-7"
       clipPathUnits="userSpaceOnUse">
      <path
         id="path26633-3"
         d="m 35,124 2,0 0,-20 -2,0 0,20 z"
         inkscape:connector-curvature="0" />
    </clipPath>
    <clipPath
       id="clipPath26617-4"
       clipPathUnits="userSpaceOnUse">
      <path
         id="path26619-7"
         d="m 35,147 2,0 0,-20 -2,0 0,20 z"
         inkscape:connector-curvature="0" />
    </clipPath>
    <clipPath
       id="clipPath26603-7"
       clipPathUnits="userSpaceOnUse">
      <path
         id="path26605-3"
         d="m 35,170 2,0 0,-20 -2,0 0,20 z"
         inkscape:connector-curvature="0" />
    </clipPath>
    <clipPath
       id="clipPath26587-7"
       clipPathUnits="userSpaceOnUse">
      <path
         id="path26589-0"
         d="m 46,55 106,0 0,-20 -106,0 0,20 z"
         inkscape:connector-curvature="0" />
    </clipPath>
    <clipPath
       id="clipPath26573-6"
       clipPathUnits="userSpaceOnUse">
      <path
         id="path26575-3"
         d="m 46,78 94,0 0,-20 -94,0 0,20 z"
         inkscape:connector-curvature="0" />
    </clipPath>
    <clipPath
       id="clipPath26559-2"
       clipPathUnits="userSpaceOnUse">
      <path
         id="path26561-2"
         d="m 46,101 204,0 0,-20 -204,0 0,20 z"
         inkscape:connector-curvature="0" />
    </clipPath>
    <clipPath
       id="clipPath26545-8"
       clipPathUnits="userSpaceOnUse">
      <path
         id="path26547-2"
         d="m 46,124 171,0 0,-20 -171,0 0,20 z"
         inkscape:connector-curvature="0" />
    </clipPath>
    <clipPath
       id="clipPath26531-5"
       clipPathUnits="userSpaceOnUse">
      <path
         id="path26533-2"
         d="m 46,147 273,0 0,-20 -273,0 0,20 z"
         inkscape:connector-curvature="0" />
    </clipPath>
    <clipPath
       id="clipPath26517-0"
       clipPathUnits="userSpaceOnUse">
      <path
         id="path26519-4"
         d="m 46,170 143,0 0,-20 -143,0 0,20 z"
         inkscape:connector-curvature="0" />
    </clipPath>
    <clipPath
       id="clipPath26517-0-2"
       clipPathUnits="userSpaceOnUse">
      <path
         id="path26519-4-1"
         d="m 46,170 143,0 0,-20 -143,0 0,20 z"
         inkscape:connector-curvature="0" />
    </clipPath>
    <clipPath
       id="clipPath26531-5-2"
       clipPathUnits="userSpaceOnUse">
      <path
         id="path26533-2-9"
         d="m 46,147 273,0 0,-20 -273,0 0,20 z"
         inkscape:connector-curvature="0" />
    </clipPath>
    <clipPath
       id="clipPath26545-8-5"
       clipPathUnits="userSpaceOnUse">
      <path
         id="path26547-2-0"
         d="m 46,124 171,0 0,-20 -171,0 0,20 z"
         inkscape:connector-curvature="0" />
    </clipPath>
    <clipPath
       id="clipPath26559-2-4"
       clipPathUnits="userSpaceOnUse">
      <path
         id="path26561-2-1"
         d="m 46,101 204,0 0,-20 -204,0 0,20 z"
         inkscape:connector-curvature="0" />
    </clipPath>
    <clipPath
       id="clipPath26573-6-7"
       clipPathUnits="userSpaceOnUse">
      <path
         id="path26575-3-5"
         d="m 46,78 94,0 0,-20 -94,0 0,20 z"
         inkscape:connector-curvature="0" />
    </clipPath>
    <clipPath
       id="clipPath26587-7-0"
       clipPathUnits="userSpaceOnUse">
      <path
         id="path26589-0-0"
         d="m 46,55 106,0 0,-20 -106,0 0,20 z"
         inkscape:connector-curvature="0" />
    </clipPath>
    <clipPath
       id="clipPath26603-7-0"
       clipPathUnits="userSpaceOnUse">
      <path
         id="path26605-3-3"
         d="m 35,170 2,0 0,-20 -2,0 0,20 z"
         inkscape:connector-curvature="0" />
    </clipPath>
    <clipPath
       id="clipPath26617-4-6"
       clipPathUnits="userSpaceOnUse">
      <path
         id="path26619-7-3"
         d="m 35,147 2,0 0,-20 -2,0 0,20 z"
         inkscape:connector-curvature="0" />
    </clipPath>
    <clipPath
       id="clipPath26631-7-1"
       clipPathUnits="userSpaceOnUse">
      <path
         id="path26633-3-7"
         d="m 35,124 2,0 0,-20 -2,0 0,20 z"
         inkscape:connector-curvature="0" />
    </clipPath>
    <clipPath
       id="clipPath26645-9-2"
       clipPathUnits="userSpaceOnUse">
      <path
         id="path26647-7-5"
         d="m 35,101 2,0 0,-20 -2,0 0,20 z"
         inkscape:connector-curvature="0" />
    </clipPath>
    <clipPath
       id="clipPath26659-2-9"
       clipPathUnits="userSpaceOnUse">
      <path
         id="path26661-3-0"
         d="m 35,78 2,0 0,-20 -2,0 0,20 z"
         inkscape:connector-curvature="0" />
    </clipPath>
    <clipPath
       id="clipPath26673-2-9"
       clipPathUnits="userSpaceOnUse">
      <path
         id="path26675-3-2"
         d="m 35,55 2,0 0,-20 -2,0 0,20 z"
         inkscape:connector-curvature="0" />
    </clipPath>
    <clipPath
       id="clipPath26517-0-2-7"
       clipPathUnits="userSpaceOnUse">
      <path
         id="path26519-4-1-3"
         d="m 46,170 143,0 0,-20 -143,0 0,20 z"
         inkscape:connector-curvature="0" />
    </clipPath>
    <clipPath
       id="clipPath26531-5-2-9"
       clipPathUnits="userSpaceOnUse">
      <path
         id="path26533-2-9-0"
         d="m 46,147 273,0 0,-20 -273,0 0,20 z"
         inkscape:connector-curvature="0" />
    </clipPath>
    <clipPath
       id="clipPath26545-8-5-5"
       clipPathUnits="userSpaceOnUse">
      <path
         id="path26547-2-0-1"
         d="m 46,124 171,0 0,-20 -171,0 0,20 z"
         inkscape:connector-curvature="0" />
    </clipPath>
    <clipPath
       id="clipPath26559-2-4-0"
       clipPathUnits="userSpaceOnUse">
      <path
         id="path26561-2-1-3"
         d="m 46,101 204,0 0,-20 -204,0 0,20 z"
         inkscape:connector-curvature="0" />
    </clipPath>
    <clipPath
       id="clipPath26573-6-7-4"
       clipPathUnits="userSpaceOnUse">
      <path
         id="path26575-3-5-9"
         d="m 46,78 94,0 0,-20 -94,0 0,20 z"
         inkscape:connector-curvature="0" />
    </clipPath>
    <clipPath
       id="clipPath26587-7-0-3"
       clipPathUnits="userSpaceOnUse">
      <path
         id="path26589-0-0-2"
         d="m 46,55 106,0 0,-20 -106,0 0,20 z"
         inkscape:connector-curvature="0" />
    </clipPath>
    <clipPath
       id="clipPath26603-7-0-5"
       clipPathUnits="userSpaceOnUse">
      <path
         id="path26605-3-3-1"
         d="m 35,170 2,0 0,-20 -2,0 0,20 z"
         inkscape:connector-curvature="0" />
    </clipPath>
    <clipPath
       id="clipPath26617-4-6-0"
       clipPathUnits="userSpaceOnUse">
      <path
         id="path26619-7-3-0"
         d="m 35,147 2,0 0,-20 -2,0 0,20 z"
         inkscape:connector-curvature="0" />
    </clipPath>
    <clipPath
       id="clipPath26631-7-1-3"
       clipPathUnits="userSpaceOnUse">
      <path
         id="path26633-3-7-5"
         d="m 35,124 2,0 0,-20 -2,0 0,20 z"
         inkscape:connector-curvature="0" />
    </clipPath>
    <clipPath
       id="clipPath26645-9-2-6"
       clipPathUnits="userSpaceOnUse">
      <path
         id="path26647-7-5-3"
         d="m 35,101 2,0 0,-20 -2,0 0,20 z"
         inkscape:connector-curvature="0" />
    </clipPath>
    <clipPath
       id="clipPath26659-2-9-9"
       clipPathUnits="userSpaceOnUse">
      <path
         id="path26661-3-0-5"
         d="m 35,78 2,0 0,-20 -2,0 0,20 z"
         inkscape:connector-curvature="0" />
    </clipPath>
    <clipPath
       id="clipPath26673-2-9-7"
       clipPathUnits="userSpaceOnUse">
      <path
         id="path26675-3-2-7"
         d="m 35,55 2,0 0,-20 -2,0 0,20 z"
         inkscape:connector-curvature="0" />
    </clipPath>
    <linearGradient
       id="linearGradient18764-2">
      <stop
         style="stop-color:#bda784;stop-opacity:0.9878788;"
         offset="0"
         id="stop18766-8" />
      <stop
         style="stop-color:#bda784;stop-opacity:0.68484849;"
         offset="1"
         id="stop18768-8" />
    </linearGradient>
    <clipPath
       clipPathUnits="userSpaceOnUse"
       id="clipPath3142">
      <path
         inkscape:connector-curvature="0"
         d="m 161,978 36.332,0 0,-89.335 -36.332,0 0,89.335 z"
         id="path3144" />
    </clipPath>
    <clipPath
       id="clipPath26587-7-0-3-4"
       clipPathUnits="userSpaceOnUse">
      <path
         id="path26589-0-0-2-7"
         d="m 46,55 106,0 0,-20 -106,0 0,20 z"
         inkscape:connector-curvature="0" />
    </clipPath>
    <linearGradient
       inkscape:collect="always"
       xlink:href="#linearGradient68693"
       id="linearGradient68783"
       gradientUnits="userSpaceOnUse"
       gradientTransform="matrix(8.7928745,0,0,4.42226,-1690.0418,-8310.7344)"
       x1="279.37509"
       y1="2429.0149"
       x2="279.8754"
       y2="2618.5195" />
    <linearGradient
       inkscape:collect="always"
       xlink:href="#linearGradient68693"
       id="linearGradient69347"
       gradientUnits="userSpaceOnUse"
       gradientTransform="matrix(8.7928745,0,0,3.9684452,-1710.0418,-7197.4114)"
       x1="279.37509"
       y1="2429.0149"
       x2="279.8754"
       y2="2618.5195" />
    <linearGradient
       inkscape:collect="always"
       xlink:href="#linearGradient68693"
       id="linearGradient69455"
       gradientUnits="userSpaceOnUse"
       gradientTransform="matrix(8.7928745,0,0,2.9763849,-1710.0418,-4787.6821)"
       x1="279.37509"
       y1="2429.0149"
       x2="279.8754"
       y2="2618.5195" />
    <clipPath
       id="clipPath26517-0-2-7-6"
       clipPathUnits="userSpaceOnUse">
      <path
         id="path26519-4-1-3-5"
         d="m 46,170 143,0 0,-20 -143,0 0,20 z"
         inkscape:connector-curvature="0" />
    </clipPath>
    <clipPath
       id="clipPath26531-5-2-9-6"
       clipPathUnits="userSpaceOnUse">
      <path
         id="path26533-2-9-0-5"
         d="m 46,147 273,0 0,-20 -273,0 0,20 z"
         inkscape:connector-curvature="0" />
    </clipPath>
    <clipPath
       id="clipPath26545-8-5-5-1"
       clipPathUnits="userSpaceOnUse">
      <path
         id="path26547-2-0-1-6"
         d="m 46,124 171,0 0,-20 -171,0 0,20 z"
         inkscape:connector-curvature="0" />
    </clipPath>
    <clipPath
       id="clipPath26559-2-4-0-9"
       clipPathUnits="userSpaceOnUse">
      <path
         id="path26561-2-1-3-2"
         d="m 46,101 204,0 0,-20 -204,0 0,20 z"
         inkscape:connector-curvature="0" />
    </clipPath>
    <clipPath
       id="clipPath26573-6-7-4-0"
       clipPathUnits="userSpaceOnUse">
      <path
         id="path26575-3-5-9-9"
         d="m 46,78 94,0 0,-20 -94,0 0,20 z"
         inkscape:connector-curvature="0" />
    </clipPath>
    <clipPath
       id="clipPath26587-7-0-3-1"
       clipPathUnits="userSpaceOnUse">
      <path
         id="path26589-0-0-2-2"
         d="m 46,55 106,0 0,-20 -106,0 0,20 z"
         inkscape:connector-curvature="0" />
    </clipPath>
    <clipPath
       id="clipPath26603-7-0-5-3"
       clipPathUnits="userSpaceOnUse">
      <path
         id="path26605-3-3-1-1"
         d="m 35,170 2,0 0,-20 -2,0 0,20 z"
         inkscape:connector-curvature="0" />
    </clipPath>
    <clipPath
       id="clipPath26617-4-6-0-8"
       clipPathUnits="userSpaceOnUse">
      <path
         id="path26619-7-3-0-2"
         d="m 35,147 2,0 0,-20 -2,0 0,20 z"
         inkscape:connector-curvature="0" />
    </clipPath>
    <clipPath
       id="clipPath26631-7-1-3-0"
       clipPathUnits="userSpaceOnUse">
      <path
         id="path26633-3-7-5-2"
         d="m 35,124 2,0 0,-20 -2,0 0,20 z"
         inkscape:connector-curvature="0" />
    </clipPath>
    <clipPath
       id="clipPath26645-9-2-6-4"
       clipPathUnits="userSpaceOnUse">
      <path
         id="path26647-7-5-3-6"
         d="m 35,101 2,0 0,-20 -2,0 0,20 z"
         inkscape:connector-curvature="0" />
    </clipPath>
    <clipPath
       id="clipPath26659-2-9-9-9"
       clipPathUnits="userSpaceOnUse">
      <path
         id="path26661-3-0-5-7"
         d="m 35,78 2,0 0,-20 -2,0 0,20 z"
         inkscape:connector-curvature="0" />
    </clipPath>
    <clipPath
       id="clipPath26673-2-9-7-2"
       clipPathUnits="userSpaceOnUse">
      <path
         id="path26675-3-2-7-5"
         d="m 35,55 2,0 0,-20 -2,0 0,20 z"
         inkscape:connector-curvature="0" />
    </clipPath>
    <linearGradient
       inkscape:collect="always"
       xlink:href="#linearGradient68693"
       id="linearGradient69658"
       gradientUnits="userSpaceOnUse"
       gradientTransform="matrix(8.7928745,0,0,2.7389237,-1710.0418,-4165.8852)"
       x1="279.37509"
       y1="2429.0149"
       x2="279.8754"
       y2="2618.5195" />
    <linearGradient
       inkscape:collect="always"
       xlink:href="#linearGradient68693"
       id="linearGradient69688"
       gradientUnits="userSpaceOnUse"
       gradientTransform="matrix(8.7928745,0,0,2.2165089,-1710.0418,-2935.932)"
       x1="279.99084"
       y1="2443.5425"
       x2="279.8754"
       y2="2618.5195" />
    <mask
       maskUnits="userSpaceOnUse"
       id="mask69684">
      <rect
         y="2448.0012"
         x="69.96257"
         height="420.0387"
         width="1287.0228"
         id="rect69686"
         style="fill:url(#linearGradient69688);fill-opacity:1;fill-rule:nonzero;stroke:none" />
    </mask>
    <linearGradient
       inkscape:collect="always"
       xlink:href="#linearGradient9577"
       id="linearGradient9583"
       x1="1311.9058"
       y1="1957.6202"
       x2="1334.438"
       y2="1962.9236"
       gradientUnits="userSpaceOnUse" />
  </defs>
  <metadata
     id="metadata7261">
    <rdf:RDF>
      <cc:Work
         rdf:about="">
        <dc:format>image/svg+xml</dc:format>
        <dc:type
           rdf:resource="http://purl.org/dc/dcmitype/StillImage" />
        <dc:title></dc:title>
      </cc:Work>
    </rdf:RDF>
  </metadata>
  <g
     transform="translate(-236.51515,-2136.4842)"
     style="display:inline"
     inkscape:label="timeline"
     id="layer6"
     inkscape:groupmode="layer">
    <path
       style="fill:#ffffff;fill-opacity:1"
       d="m 244.42594,2152.4592 c -0.0411,-1.2472 -0.1468,-2.172 -0.27623,-2.4165 -0.33004,-0.6236 -0.83283,-1.1093 -1.14842,-1.1093 -0.15911,0 -0.28929,-0.1083 -0.28929,-0.2405 0,-0.2095 0.49395,-0.235 3.84257,-0.1981 3.65236,0.041 4.52836,0.1615 3.35876,0.4646 -0.34021,0.088 -0.59719,0.3264 -0.86579,0.8025 -0.33515,0.5939 -0.38982,0.9246 -0.44605,2.6973 -0.0353,1.1112 -0.10453,2.0203 -0.15396,2.0203 -0.0494,0 -0.24288,-0.1438 -0.42986,-0.3194 l -0.33995,-0.3194 -0.29125,0.3218 -0.29126,0.3219 -0.34257,-0.3219 -0.34257,-0.3218 -0.29019,0.3207 c -0.27168,0.3001 -0.30877,0.3039 -0.58138,0.057 -0.27099,-0.2452 -0.3113,-0.2453 -0.58097,0 -0.15938,0.1443 -0.32922,0.2623 -0.37741,0.2623 -0.0482,0 -0.11754,-0.9091 -0.15418,-2.0203 z m 1.64646,0.8805 c -0.25983,-0.2598 -0.58829,0.069 -0.44417,0.4442 0.0991,0.2583 0.1235,0.259 0.37077,0.012 0.20674,-0.2068 0.22282,-0.3066 0.0733,-0.4559 z m 1.28769,0.099 c -0.10838,-0.2823 -0.27969,-0.2878 -0.50504,-0.017 -0.12695,0.153 -0.12463,0.2593 0.008,0.3925 0.23555,0.2356 0.61961,-0.055 0.49653,-0.3761 z m -2.35724,0.2602 c 0.0501,-0.081 0.0187,-0.1923 -0.0698,-0.247 -0.0886,-0.055 -0.16104,0.012 -0.16104,0.1474 0,0.2785 0.0951,0.3194 0.23092,0.1 z m 3.25512,-0.2011 c 0,-0.256 -0.0468,-0.3018 -0.17634,-0.1722 -0.0969,0.098 -0.12842,0.2539 -0.0698,0.3485 0.16391,0.2653 0.24622,0.2063 0.24622,-0.1763 z m -2.69618,-0.4833 c -0.001,-0.1083 -0.0697,-0.3044 -0.15186,-0.4345 -0.19806,-0.3132 -0.52954,0 -0.38855,0.3684 0.11765,0.3068 0.544,0.3589 0.54041,0.066 z m 1.19938,0.025 c 0.16329,-0.2642 -0.20396,-0.5672 -0.42255,-0.3486 -0.18286,0.1829 -0.0684,0.521 0.17634,0.521 0.0768,0 0.18766,-0.077 0.24621,-0.1724 z m 1.17475,-0.135 c 0.11392,-0.2129 0.11356,-0.3387 -0.001,-0.4098 -0.23573,-0.1457 -0.62533,0.221 -0.52171,0.491 0.12065,0.3144 0.32863,0.2822 0.52307,-0.081 z m -1.81282,-0.4919 c 0.1485,-0.2403 -0.25399,-0.6783 -0.44644,-0.4858 -0.17772,0.1777 -0.0395,0.6511 0.19015,0.6511 0.0848,0 0.20008,-0.075 0.25629,-0.1653 z m 1.27276,-0.4532 c -0.15344,-0.2483 -0.35599,-0.2145 -0.46833,0.078 -0.15077,0.393 0.0653,0.6058 0.33798,0.333 0.13072,-0.1307 0.18938,-0.3158 0.13035,-0.4113 z m -0.65435,-0.2811 c 0.0561,-0.1461 0.004,-0.3636 -0.11549,-0.4832 -0.18436,-0.1844 -0.24856,-0.1802 -0.42136,0.028 -0.16295,0.1963 -0.16428,0.2933 -0.006,0.4834 0.2564,0.3089 0.41731,0.3006 0.54347,-0.028 z m -1.24712,-0.066 c 0.059,-0.095 -0.0108,-0.2915 -0.15485,-0.4357 -0.22717,-0.2271 -0.28132,-0.2311 -0.40581,-0.03 -0.0894,0.1445 -0.0798,0.3093 0.0252,0.4358 0.20681,0.2492 0.39348,0.2595 0.53553,0.03 z m 2.55192,-0.075 c 0.14073,-0.3668 -0.17069,-0.6093 -0.41082,-0.3199 -0.20301,0.2446 -0.11104,0.5682 0.16144,0.5682 0.0848,0 0.19697,-0.112 0.24938,-0.2483 z m -2.02599,-1.1065 c -0.22189,-0.2219 -0.26536,-0.2219 -0.44951,0 -0.16617,0.2002 -0.16617,0.291 0,0.4913 0.18415,0.2218 0.22762,0.2218 0.44951,0 0.22187,-0.2219 0.22187,-0.2694 0,-0.4913 z m 1.42541,0.5073 c 0.13503,-0.1627 0.10489,-0.2791 -0.12644,-0.4884 -0.28902,-0.2616 -0.31167,-0.2601 -0.4674,0.031 -0.26493,0.4951 0.23992,0.8842 0.59384,0.4576 z m 0.9707,-0.3409 c 0,-0.1307 -0.0281,-0.2377 -0.0623,-0.2377 -0.0342,0 -0.10333,0.1072 -0.15348,0.2377 -0.0501,0.1308 -0.0222,0.2377 0.0623,0.2377 0.0844,0 0.15348,-0.1072 0.15348,-0.2377 z m 0.63383,-1.5627 c 0,-0.055 -0.34843,-0.1011 -0.77429,-0.1011 -0.75167,0 -0.77663,0.014 -0.8536,0.515 -0.05,0.3246 0.006,0.6118 0.15124,0.777 0.21066,0.2396 0.28428,0.2038 0.8536,-0.4139 0.34268,-0.3717 0.62305,-0.7213 0.62305,-0.777 z m -3.59288,0.9836 c 0.0844,-0.1338 0.10598,-0.4326 0.0479,-0.6641 -0.0947,-0.3769 -0.17935,-0.4206 -0.81561,-0.4206 -0.39052,0 -0.71004,0.043 -0.71004,0.096 0,0.053 0.22238,0.3768 0.49418,0.7199 0.5061,0.639 0.71411,0.6959 0.98355,0.2687 z m 1.6914,-0.7162 c 0,-0.3313 -0.0723,-0.3685 -0.71607,-0.3685 -0.70063,0 -0.71384,0.012 -0.61254,0.4358 0.057,0.2397 0.21296,0.5616 0.34671,0.7155 0.23122,0.266 0.26137,0.2626 0.61255,-0.068 0.20314,-0.1909 0.36935,-0.5129 0.36935,-0.7156 z m -5.54535,0.3972 c -3.19384,-1.1706 -3.32862,-1.3538 -3.32733,-4.5212 10e-4,-2.7432 0.1278,-3.2126 1.12565,-4.1692 2.81092,-2.6952 8.20759,-3.3313 12.11311,-1.4279 0.7019,0.342 1.60203,0.9087 2.0003,1.2593 1.14356,1.0066 1.23964,1.335 1.23895,4.2349 -8e-4,3.5329 0.0928,3.4136 -3.77031,4.7976 -0.9763,0.3497 -1.77508,0.5988 -1.77508,0.5535 0,-0.046 0.10875,-0.2928 0.24176,-0.5499 0.16374,-0.3167 0.362,-0.4675 0.61442,-0.4675 0.4082,0 0.66335,-0.235 0.75094,-0.6915 0.0382,-0.1988 0.38,-0.4122 1.04586,-0.6531 1.53074,-0.5536 1.46689,-0.4184 1.46689,-3.1058 l 0,-2.3516 -0.65286,-0.6273 c -0.80069,-0.7694 -2.27313,-1.5119 -3.63385,-1.8326 -1.31565,-0.3101 -3.78016,-0.3129 -4.98933,0 -1.41405,0.3595 -3.12425,1.2549 -3.77744,1.9779 l -0.57379,0.6351 0,2.1491 c 0,1.182 0.0692,2.2785 0.15386,2.4366 0.0847,0.1582 0.62888,0.4553 1.20947,0.6602 0.84223,0.2974 1.08572,0.459 1.20452,0.7998 0.0886,0.2541 0.33202,0.491 0.60104,0.5848 0.40631,0.1416 1.08533,0.8994 0.93283,1.0412 -0.0336,0.031 -1.02341,-0.296 -2.19961,-0.727 z m -0.23831,-2.0272 -1.1092,-0.4385 -0.0438,-2.2178 -0.0438,-2.2176 0.63235,-0.5713 c 1.39189,-1.2575 3.23154,-1.85 5.74354,-1.85 2.48471,0 4.48534,0.6638 5.87331,1.9486 l 0.59421,0.5501 0,2.0588 c 0,1.5189 -0.0551,2.1046 -0.21055,2.2336 -0.43072,0.3574 -2.25475,0.9003 -2.8486,0.8479 l -0.60306,-0.053 0.0187,-1.5348 c 0.0108,-0.8442 0.0142,-1.731 0.008,-1.9707 l -0.01,-0.4357 -2.85221,0 -2.85222,0 0,1.9807 0,1.9808 -0.38319,0 c -0.21075,0 -0.47814,0.029 -0.59421,0.064 -0.11609,0.035 -0.71017,-0.1333 -1.32023,-0.3745 z m 2.77298,-1.4324 0,-1.743 2.45609,0 2.45607,0 0,1.743 0,1.7431 -2.45607,0 -2.45609,0 z"
       id="path3380"
       inkscape:connector-curvature="0"
       sodipodi:nodetypes="ccssccccscccccccccsccccccccccccccsccccccccccccccsccccccccscccccccccccccccccccscccccccccccsscsssscccsccssccccsccccccscccccsasccsccccccscscccccccccssccsccccccccccscccccccccccc" />
  </g>
</svg>
