<?xml version="1.0" encoding="UTF-8" standalone="no"?>
<!-- Created with Inkscape (http://www.inkscape.org/) -->

<svg
   xmlns:dc="http://purl.org/dc/elements/1.1/"
   xmlns:cc="http://creativecommons.org/ns#"
   xmlns:rdf="http://www.w3.org/1999/02/22-rdf-syntax-ns#"
   xmlns:svg="http://www.w3.org/2000/svg"
   xmlns="http://www.w3.org/2000/svg"
   xmlns:xlink="http://www.w3.org/1999/xlink"
   xmlns:sodipodi="http://sodipodi.sourceforge.net/DTD/sodipodi-0.dtd"
   xmlns:inkscape="http://www.inkscape.org/namespaces/inkscape"
   inkscape:export-ydpi="200"
   inkscape:export-xdpi="200"
   inkscape:export-filename="/home/dnyeupe/Dropbox/CV/infoCV/DavidTorralba-InfographicCV.png"
   sodipodi:docname="past_basket.svg"
   inkscape:version="0.48.4 r9939"
   version="1.1"
   id="svg7256"
   height="20"
   width="20">
  <sodipodi:namedview
     id="base"
     pagecolor="#000000"
     bordercolor="#666666"
     borderopacity="1.0"
     inkscape:pageopacity="0.36470588"
     inkscape:pageshadow="2"
     inkscape:zoom="13.860237"
     inkscape:cx="3.1382948"
     inkscape:cy="8.6608071"
     inkscape:document-units="px"
     inkscape:current-layer="layer6"
     showgrid="false"
     inkscape:window-width="1535"
     inkscape:window-height="876"
     inkscape:window-x="65"
     inkscape:window-y="24"
     inkscape:window-maximized="1"
     showguides="true"
     inkscape:guide-bbox="true"
     inkscape:snap-global="true"
     fit-margin-top="0"
     fit-margin-left="0"
     fit-margin-right="0"
     fit-margin-bottom="0"
     inkscape:snap-grids="true"
     height="1052.36px">
    <inkscape:grid
       originy="-2843.5157px"
       originx="-236.51515px"
       dotted="true"
       snapvisiblegridlinesonly="true"
       enabled="true"
       visible="true"
       empspacing="5"
       id="grid10841"
       type="xygrid" />
  </sodipodi:namedview>
  <defs
     id="defs7258">
    <linearGradient
       id="linearGradient9577">
      <stop
         style="stop-color:#ffffff;stop-opacity:1;"
         offset="0"
         id="stop9579" />
      <stop
         style="stop-color:#ddd1bf;stop-opacity:1;"
         offset="1"
         id="stop9581" />
    </linearGradient>
    <linearGradient
       id="linearGradient68693">
      <stop
         style="stop-color:#ffffff;stop-opacity:1;"
         offset="0"
         id="stop68695" />
      <stop
         style="stop-color:#000000;stop-opacity:1;"
         offset="1"
         id="stop68697" />
    </linearGradient>
    <linearGradient
       id="linearGradient18772">
      <stop
         style="stop-color:#cfaa75;stop-opacity:1;"
         offset="0"
         id="stop18774" />
      <stop
         style="stop-color:#cfaa75;stop-opacity:0.66060609;"
         offset="1"
         id="stop18776" />
    </linearGradient>
    <linearGradient
       id="linearGradient18764">
      <stop
         style="stop-color:#bda784;stop-opacity:1;"
         offset="0"
         id="stop18766" />
      <stop
         style="stop-color:#bda784;stop-opacity:1;"
         offset="1"
         id="stop18768" />
    </linearGradient>
    <linearGradient
       id="linearGradient12741">
      <stop
         style="stop-color:#ffffff;stop-opacity:0;"
         offset="0"
         id="stop12743" />
      <stop
         id="stop12749"
         offset="0.2"
         style="stop-color:#ffffff;stop-opacity:1;" />
      <stop
         id="stop12745"
         offset="0.80000001"
         style="stop-color:#ffffff;stop-opacity:1;" />
      <stop
         style="stop-color:#ffffff;stop-opacity:0;"
         offset="1"
         id="stop12747" />
    </linearGradient>
    <linearGradient
       id="linearGradient7496">
      <stop
         id="stop7498"
         offset="0"
         style="stop-color:#ffffff;stop-opacity:1;" />
      <stop
         style="stop-color:#ffffff;stop-opacity:1;"
         offset="0.2"
         id="stop7504" />
      <stop
         id="stop7500"
         offset="1"
         style="stop-color:#ffffff;stop-opacity:0;" />
    </linearGradient>
    <linearGradient
       id="linearGradient5981"
       inkscape:collect="always">
      <stop
         id="stop5983"
         offset="0"
         style="stop-color:#9291f7;stop-opacity:1;" />
      <stop
         id="stop5985"
         offset="1"
         style="stop-color:#9291f7;stop-opacity:0;" />
    </linearGradient>
    <marker
       style="overflow:visible"
       id="DotL"
       refX="0"
       refY="0"
       orient="auto"
       inkscape:stockid="DotL">
      <path
         inkscape:connector-curvature="0"
         transform="matrix(0.8,0,0,0.8,5.92,0.8)"
         style="fill-rule:evenodd;stroke:#000000;stroke-width:1pt"
         d="m -2.5,-1 c 0,2.76 -2.24,5 -5,5 -2.76,0 -5,-2.24 -5,-5 0,-2.76 2.24,-5 5,-5 2.76,0 5,2.24 5,5 z"
         id="path4214" />
    </marker>
    <linearGradient
       gradientUnits="userSpaceOnUse"
       y2="1065.0002"
       x2="1817.9534"
       y1="1065.0002"
       x1="1280"
       id="linearGradient5987"
       xlink:href="#linearGradient5981"
       inkscape:collect="always" />
    <linearGradient
       spreadMethod="pad"
       gradientUnits="userSpaceOnUse"
       y2="4570"
       x2="1080.0625"
       y1="4570"
       x1="79.9375"
       id="linearGradient12753"
       xlink:href="#linearGradient12741"
       inkscape:collect="always" />
    <linearGradient
       gradientUnits="userSpaceOnUse"
       y2="4570"
       x2="1080.0625"
       y1="4570"
       x1="79.9375"
       id="linearGradient13006"
       xlink:href="#linearGradient12741"
       inkscape:collect="always" />
    <linearGradient
       gradientUnits="userSpaceOnUse"
       y2="4570"
       x2="1040.0625"
       y1="4570"
       x1="119.9375"
       id="linearGradient13008"
       xlink:href="#linearGradient12741"
       inkscape:collect="always" />
    <linearGradient
       gradientUnits="userSpaceOnUse"
       y2="4570"
       x2="1080.0625"
       y1="4570"
       x1="79.9375"
       id="linearGradient13416"
       xlink:href="#linearGradient12741"
       inkscape:collect="always" />
    <linearGradient
       id="linearGradient12741-9">
      <stop
         style="stop-color:#ffffff;stop-opacity:0;"
         offset="0"
         id="stop12743-9" />
      <stop
         id="stop12749-2"
         offset="0.2"
         style="stop-color:#ffffff;stop-opacity:1;" />
      <stop
         id="stop12745-1"
         offset="0.80000001"
         style="stop-color:#ffffff;stop-opacity:1;" />
      <stop
         style="stop-color:#ffffff;stop-opacity:0;"
         offset="1"
         id="stop12747-6" />
    </linearGradient>
    <linearGradient
       id="linearGradient13461">
      <stop
         style="stop-color:#ffffff;stop-opacity:0;"
         offset="0"
         id="stop13463" />
      <stop
         id="stop13465"
         offset="0.2"
         style="stop-color:#ffffff;stop-opacity:1;" />
      <stop
         id="stop13467"
         offset="0.80000001"
         style="stop-color:#ffffff;stop-opacity:1;" />
      <stop
         style="stop-color:#ffffff;stop-opacity:0;"
         offset="1"
         id="stop13469" />
    </linearGradient>
    <linearGradient
       id="linearGradient13472">
      <stop
         style="stop-color:#ffffff;stop-opacity:0;"
         offset="0"
         id="stop13474" />
      <stop
         id="stop13476"
         offset="0.2"
         style="stop-color:#ffffff;stop-opacity:1;" />
      <stop
         id="stop13478"
         offset="0.80000001"
         style="stop-color:#ffffff;stop-opacity:1;" />
      <stop
         style="stop-color:#ffffff;stop-opacity:0;"
         offset="1"
         id="stop13480" />
    </linearGradient>
    <linearGradient
       id="linearGradient13483">
      <stop
         style="stop-color:#ffffff;stop-opacity:0;"
         offset="0"
         id="stop13485" />
      <stop
         id="stop13487"
         offset="0.2"
         style="stop-color:#ffffff;stop-opacity:1;" />
      <stop
         id="stop13489"
         offset="0.80000001"
         style="stop-color:#ffffff;stop-opacity:1;" />
      <stop
         style="stop-color:#ffffff;stop-opacity:0;"
         offset="1"
         id="stop13491" />
    </linearGradient>
    <linearGradient
       id="linearGradient13494">
      <stop
         style="stop-color:#ffffff;stop-opacity:0;"
         offset="0"
         id="stop13496" />
      <stop
         id="stop13498"
         offset="0.2"
         style="stop-color:#ffffff;stop-opacity:1;" />
      <stop
         id="stop13500"
         offset="0.80000001"
         style="stop-color:#ffffff;stop-opacity:1;" />
      <stop
         style="stop-color:#ffffff;stop-opacity:0;"
         offset="1"
         id="stop13502" />
    </linearGradient>
    <linearGradient
       id="linearGradient13505">
      <stop
         style="stop-color:#ffffff;stop-opacity:0;"
         offset="0"
         id="stop13507" />
      <stop
         id="stop13509"
         offset="0.2"
         style="stop-color:#ffffff;stop-opacity:1;" />
      <stop
         id="stop13511"
         offset="0.80000001"
         style="stop-color:#ffffff;stop-opacity:1;" />
      <stop
         style="stop-color:#ffffff;stop-opacity:0;"
         offset="1"
         id="stop13513" />
    </linearGradient>
    <linearGradient
       id="linearGradient13516">
      <stop
         style="stop-color:#ffffff;stop-opacity:0;"
         offset="0"
         id="stop13518" />
      <stop
         id="stop13520"
         offset="0.2"
         style="stop-color:#ffffff;stop-opacity:1;" />
      <stop
         id="stop13522"
         offset="0.80000001"
         style="stop-color:#ffffff;stop-opacity:1;" />
      <stop
         style="stop-color:#ffffff;stop-opacity:0;"
         offset="1"
         id="stop13524" />
    </linearGradient>
    <linearGradient
       id="linearGradient13527">
      <stop
         style="stop-color:#ffffff;stop-opacity:0;"
         offset="0"
         id="stop13529" />
      <stop
         id="stop13531"
         offset="0.2"
         style="stop-color:#ffffff;stop-opacity:1;" />
      <stop
         id="stop13533"
         offset="0.80000001"
         style="stop-color:#ffffff;stop-opacity:1;" />
      <stop
         style="stop-color:#ffffff;stop-opacity:0;"
         offset="1"
         id="stop13535" />
    </linearGradient>
    <linearGradient
       id="linearGradient13538">
      <stop
         style="stop-color:#ffffff;stop-opacity:0;"
         offset="0"
         id="stop13540" />
      <stop
         id="stop13542"
         offset="0.2"
         style="stop-color:#ffffff;stop-opacity:1;" />
      <stop
         id="stop13544"
         offset="0.80000001"
         style="stop-color:#ffffff;stop-opacity:1;" />
      <stop
         style="stop-color:#ffffff;stop-opacity:0;"
         offset="1"
         id="stop13546" />
    </linearGradient>
    <linearGradient
       id="linearGradient13549">
      <stop
         style="stop-color:#ffffff;stop-opacity:0;"
         offset="0"
         id="stop13551" />
      <stop
         id="stop13553"
         offset="0.2"
         style="stop-color:#ffffff;stop-opacity:1;" />
      <stop
         id="stop13555"
         offset="0.80000001"
         style="stop-color:#ffffff;stop-opacity:1;" />
      <stop
         style="stop-color:#ffffff;stop-opacity:0;"
         offset="1"
         id="stop13557" />
    </linearGradient>
    <linearGradient
       id="linearGradient13560">
      <stop
         style="stop-color:#ffffff;stop-opacity:0;"
         offset="0"
         id="stop13562" />
      <stop
         id="stop13564"
         offset="0.2"
         style="stop-color:#ffffff;stop-opacity:1;" />
      <stop
         id="stop13566"
         offset="0.80000001"
         style="stop-color:#ffffff;stop-opacity:1;" />
      <stop
         style="stop-color:#ffffff;stop-opacity:0;"
         offset="1"
         id="stop13568" />
    </linearGradient>
    <linearGradient
       y2="4570"
       x2="1080.0625"
       y1="4570"
       x1="79.9375"
       gradientUnits="userSpaceOnUse"
       id="linearGradient13418-4"
       xlink:href="#linearGradient12741-9"
       inkscape:collect="always" />
    <linearGradient
       id="linearGradient13571">
      <stop
         style="stop-color:#ffffff;stop-opacity:0;"
         offset="0"
         id="stop13573" />
      <stop
         id="stop13575"
         offset="0.2"
         style="stop-color:#ffffff;stop-opacity:1;" />
      <stop
         id="stop13577"
         offset="0.80000001"
         style="stop-color:#ffffff;stop-opacity:1;" />
      <stop
         style="stop-color:#ffffff;stop-opacity:0;"
         offset="1"
         id="stop13579" />
    </linearGradient>
    <clipPath
       id="clipPath16705-6"
       clipPathUnits="userSpaceOnUse">
      <path
         id="path16707-3"
         d="m 39.0786,6711.92 155.8424,0 0,-155.84 -155.8424,0 0,155.84 z"
         inkscape:connector-curvature="0" />
    </clipPath>
    <clipPath
       id="clipPath16721-9"
       clipPathUnits="userSpaceOnUse">
      <path
         id="path16723-9"
         d="m 47.3164,6703.68 139.3666,0 0,-139.36 -139.3666,0 0,139.36 z"
         inkscape:connector-curvature="0" />
    </clipPath>
    <clipPath
       id="clipPath16737-2"
       clipPathUnits="userSpaceOnUse">
      <path
         id="path16739-3"
         d="m 55.4277,6695.57 123.1443,0 0,-123.14 -123.1443,0 0,123.14 z"
         inkscape:connector-curvature="0" />
    </clipPath>
    <clipPath
       id="clipPath16753-4"
       clipPathUnits="userSpaceOnUse">
      <path
         id="path16755-5"
         d="m 63.6021,6687.4 106.7959,0 0,-106.8 -106.7959,0 0,106.8 z"
         inkscape:connector-curvature="0" />
    </clipPath>
    <clipPath
       id="clipPath16769-9"
       clipPathUnits="userSpaceOnUse">
      <path
         id="path16771-9"
         d="m 71.5591,6679.44 90.8819,0 0,-90.88 -90.8819,0 0,90.88 z"
         inkscape:connector-curvature="0" />
    </clipPath>
    <clipPath
       id="clipPath16785-2"
       clipPathUnits="userSpaceOnUse">
      <path
         id="path16787-5"
         d="m 79.4243,6671.58 75.1517,0 0,-75.16 -75.1517,0 0,75.16 z"
         inkscape:connector-curvature="0" />
    </clipPath>
    <clipPath
       id="clipPath16839-6"
       clipPathUnits="userSpaceOnUse">
      <path
         id="path16841-0"
         d="m 31.4937,6636.5 88.0063,0 0,-88.01 -88.0063,0 0,88.01 z"
         inkscape:connector-curvature="0" />
    </clipPath>
    <clipPath
       id="clipPath16855-6"
       clipPathUnits="userSpaceOnUse">
      <path
         id="path16857-0"
         d="m 40.0786,6710.92 79.4214,0 0,-153.84 -79.4214,0 0,153.84 z"
         inkscape:connector-curvature="0" />
    </clipPath>
    <clipPath
       id="clipPath16871-9"
       clipPathUnits="userSpaceOnUse">
      <path
         id="path16873-1"
         d="m 48.3164,6702.68 137.3666,0 0,-137.36 -137.3666,0 0,137.36 z"
         inkscape:connector-curvature="0" />
    </clipPath>
    <clipPath
       id="clipPath16887-4"
       clipPathUnits="userSpaceOnUse">
      <path
         id="path16889-0"
         d="m 56.4277,6682.61 63.0723,0 0,-109.18 -63.0723,0 0,109.18 z"
         inkscape:connector-curvature="0" />
    </clipPath>
    <clipPath
       id="clipPath16903-6"
       clipPathUnits="userSpaceOnUse">
      <path
         id="path16905-9"
         d="m 64.6021,6669.22 54.8979,0 0,-87.62 -54.8979,0 0,87.62 z"
         inkscape:connector-curvature="0" />
    </clipPath>
    <clipPath
       id="clipPath16919-8"
       clipPathUnits="userSpaceOnUse">
      <path
         id="path16921-1"
         d="m 79.7573,6613 39.7427,0 0,-23.44 -39.7427,0 0,23.44 z"
         inkscape:connector-curvature="0" />
    </clipPath>
    <clipPath
       id="clipPath16935-4"
       clipPathUnits="userSpaceOnUse">
      <path
         id="path16937-0"
         d="m 81.2959,6628.81 38.2041,0 0,-31.39 -38.2041,0 0,31.39 z"
         inkscape:connector-curvature="0" />
    </clipPath>
    <clipPath
       id="clipPath26673-2"
       clipPathUnits="userSpaceOnUse">
      <path
         id="path26675-3"
         d="m 35,55 2,0 0,-20 -2,0 0,20 z"
         inkscape:connector-curvature="0" />
    </clipPath>
    <clipPath
       id="clipPath26659-2"
       clipPathUnits="userSpaceOnUse">
      <path
         id="path26661-3"
         d="m 35,78 2,0 0,-20 -2,0 0,20 z"
         inkscape:connector-curvature="0" />
    </clipPath>
    <clipPath
       id="clipPath26645-9"
       clipPathUnits="userSpaceOnUse">
      <path
         id="path26647-7"
         d="m 35,101 2,0 0,-20 -2,0 0,20 z"
         inkscape:connector-curvature="0" />
    </clipPath>
    <clipPath
       id="clipPath26631-7"
       clipPathUnits="userSpaceOnUse">
      <path
         id="path26633-3"
         d="m 35,124 2,0 0,-20 -2,0 0,20 z"
         inkscape:connector-curvature="0" />
    </clipPath>
    <clipPath
       id="clipPath26617-4"
       clipPathUnits="userSpaceOnUse">
      <path
         id="path26619-7"
         d="m 35,147 2,0 0,-20 -2,0 0,20 z"
         inkscape:connector-curvature="0" />
    </clipPath>
    <clipPath
       id="clipPath26603-7"
       clipPathUnits="userSpaceOnUse">
      <path
         id="path26605-3"
         d="m 35,170 2,0 0,-20 -2,0 0,20 z"
         inkscape:connector-curvature="0" />
    </clipPath>
    <clipPath
       id="clipPath26587-7"
       clipPathUnits="userSpaceOnUse">
      <path
         id="path26589-0"
         d="m 46,55 106,0 0,-20 -106,0 0,20 z"
         inkscape:connector-curvature="0" />
    </clipPath>
    <clipPath
       id="clipPath26573-6"
       clipPathUnits="userSpaceOnUse">
      <path
         id="path26575-3"
         d="m 46,78 94,0 0,-20 -94,0 0,20 z"
         inkscape:connector-curvature="0" />
    </clipPath>
    <clipPath
       id="clipPath26559-2"
       clipPathUnits="userSpaceOnUse">
      <path
         id="path26561-2"
         d="m 46,101 204,0 0,-20 -204,0 0,20 z"
         inkscape:connector-curvature="0" />
    </clipPath>
    <clipPath
       id="clipPath26545-8"
       clipPathUnits="userSpaceOnUse">
      <path
         id="path26547-2"
         d="m 46,124 171,0 0,-20 -171,0 0,20 z"
         inkscape:connector-curvature="0" />
    </clipPath>
    <clipPath
       id="clipPath26531-5"
       clipPathUnits="userSpaceOnUse">
      <path
         id="path26533-2"
         d="m 46,147 273,0 0,-20 -273,0 0,20 z"
         inkscape:connector-curvature="0" />
    </clipPath>
    <clipPath
       id="clipPath26517-0"
       clipPathUnits="userSpaceOnUse">
      <path
         id="path26519-4"
         d="m 46,170 143,0 0,-20 -143,0 0,20 z"
         inkscape:connector-curvature="0" />
    </clipPath>
    <clipPath
       id="clipPath26517-0-2"
       clipPathUnits="userSpaceOnUse">
      <path
         id="path26519-4-1"
         d="m 46,170 143,0 0,-20 -143,0 0,20 z"
         inkscape:connector-curvature="0" />
    </clipPath>
    <clipPath
       id="clipPath26531-5-2"
       clipPathUnits="userSpaceOnUse">
      <path
         id="path26533-2-9"
         d="m 46,147 273,0 0,-20 -273,0 0,20 z"
         inkscape:connector-curvature="0" />
    </clipPath>
    <clipPath
       id="clipPath26545-8-5"
       clipPathUnits="userSpaceOnUse">
      <path
         id="path26547-2-0"
         d="m 46,124 171,0 0,-20 -171,0 0,20 z"
         inkscape:connector-curvature="0" />
    </clipPath>
    <clipPath
       id="clipPath26559-2-4"
       clipPathUnits="userSpaceOnUse">
      <path
         id="path26561-2-1"
         d="m 46,101 204,0 0,-20 -204,0 0,20 z"
         inkscape:connector-curvature="0" />
    </clipPath>
    <clipPath
       id="clipPath26573-6-7"
       clipPathUnits="userSpaceOnUse">
      <path
         id="path26575-3-5"
         d="m 46,78 94,0 0,-20 -94,0 0,20 z"
         inkscape:connector-curvature="0" />
    </clipPath>
    <clipPath
       id="clipPath26587-7-0"
       clipPathUnits="userSpaceOnUse">
      <path
         id="path26589-0-0"
         d="m 46,55 106,0 0,-20 -106,0 0,20 z"
         inkscape:connector-curvature="0" />
    </clipPath>
    <clipPath
       id="clipPath26603-7-0"
       clipPathUnits="userSpaceOnUse">
      <path
         id="path26605-3-3"
         d="m 35,170 2,0 0,-20 -2,0 0,20 z"
         inkscape:connector-curvature="0" />
    </clipPath>
    <clipPath
       id="clipPath26617-4-6"
       clipPathUnits="userSpaceOnUse">
      <path
         id="path26619-7-3"
         d="m 35,147 2,0 0,-20 -2,0 0,20 z"
         inkscape:connector-curvature="0" />
    </clipPath>
    <clipPath
       id="clipPath26631-7-1"
       clipPathUnits="userSpaceOnUse">
      <path
         id="path26633-3-7"
         d="m 35,124 2,0 0,-20 -2,0 0,20 z"
         inkscape:connector-curvature="0" />
    </clipPath>
    <clipPath
       id="clipPath26645-9-2"
       clipPathUnits="userSpaceOnUse">
      <path
         id="path26647-7-5"
         d="m 35,101 2,0 0,-20 -2,0 0,20 z"
         inkscape:connector-curvature="0" />
    </clipPath>
    <clipPath
       id="clipPath26659-2-9"
       clipPathUnits="userSpaceOnUse">
      <path
         id="path26661-3-0"
         d="m 35,78 2,0 0,-20 -2,0 0,20 z"
         inkscape:connector-curvature="0" />
    </clipPath>
    <clipPath
       id="clipPath26673-2-9"
       clipPathUnits="userSpaceOnUse">
      <path
         id="path26675-3-2"
         d="m 35,55 2,0 0,-20 -2,0 0,20 z"
         inkscape:connector-curvature="0" />
    </clipPath>
    <clipPath
       id="clipPath26517-0-2-7"
       clipPathUnits="userSpaceOnUse">
      <path
         id="path26519-4-1-3"
         d="m 46,170 143,0 0,-20 -143,0 0,20 z"
         inkscape:connector-curvature="0" />
    </clipPath>
    <clipPath
       id="clipPath26531-5-2-9"
       clipPathUnits="userSpaceOnUse">
      <path
         id="path26533-2-9-0"
         d="m 46,147 273,0 0,-20 -273,0 0,20 z"
         inkscape:connector-curvature="0" />
    </clipPath>
    <clipPath
       id="clipPath26545-8-5-5"
       clipPathUnits="userSpaceOnUse">
      <path
         id="path26547-2-0-1"
         d="m 46,124 171,0 0,-20 -171,0 0,20 z"
         inkscape:connector-curvature="0" />
    </clipPath>
    <clipPath
       id="clipPath26559-2-4-0"
       clipPathUnits="userSpaceOnUse">
      <path
         id="path26561-2-1-3"
         d="m 46,101 204,0 0,-20 -204,0 0,20 z"
         inkscape:connector-curvature="0" />
    </clipPath>
    <clipPath
       id="clipPath26573-6-7-4"
       clipPathUnits="userSpaceOnUse">
      <path
         id="path26575-3-5-9"
         d="m 46,78 94,0 0,-20 -94,0 0,20 z"
         inkscape:connector-curvature="0" />
    </clipPath>
    <clipPath
       id="clipPath26587-7-0-3"
       clipPathUnits="userSpaceOnUse">
      <path
         id="path26589-0-0-2"
         d="m 46,55 106,0 0,-20 -106,0 0,20 z"
         inkscape:connector-curvature="0" />
    </clipPath>
    <clipPath
       id="clipPath26603-7-0-5"
       clipPathUnits="userSpaceOnUse">
      <path
         id="path26605-3-3-1"
         d="m 35,170 2,0 0,-20 -2,0 0,20 z"
         inkscape:connector-curvature="0" />
    </clipPath>
    <clipPath
       id="clipPath26617-4-6-0"
       clipPathUnits="userSpaceOnUse">
      <path
         id="path26619-7-3-0"
         d="m 35,147 2,0 0,-20 -2,0 0,20 z"
         inkscape:connector-curvature="0" />
    </clipPath>
    <clipPath
       id="clipPath26631-7-1-3"
       clipPathUnits="userSpaceOnUse">
      <path
         id="path26633-3-7-5"
         d="m 35,124 2,0 0,-20 -2,0 0,20 z"
         inkscape:connector-curvature="0" />
    </clipPath>
    <clipPath
       id="clipPath26645-9-2-6"
       clipPathUnits="userSpaceOnUse">
      <path
         id="path26647-7-5-3"
         d="m 35,101 2,0 0,-20 -2,0 0,20 z"
         inkscape:connector-curvature="0" />
    </clipPath>
    <clipPath
       id="clipPath26659-2-9-9"
       clipPathUnits="userSpaceOnUse">
      <path
         id="path26661-3-0-5"
         d="m 35,78 2,0 0,-20 -2,0 0,20 z"
         inkscape:connector-curvature="0" />
    </clipPath>
    <clipPath
       id="clipPath26673-2-9-7"
       clipPathUnits="userSpaceOnUse">
      <path
         id="path26675-3-2-7"
         d="m 35,55 2,0 0,-20 -2,0 0,20 z"
         inkscape:connector-curvature="0" />
    </clipPath>
    <linearGradient
       id="linearGradient18764-2">
      <stop
         style="stop-color:#bda784;stop-opacity:0.9878788;"
         offset="0"
         id="stop18766-8" />
      <stop
         style="stop-color:#bda784;stop-opacity:0.68484849;"
         offset="1"
         id="stop18768-8" />
    </linearGradient>
    <clipPath
       clipPathUnits="userSpaceOnUse"
       id="clipPath3142">
      <path
         inkscape:connector-curvature="0"
         d="m 161,978 36.332,0 0,-89.335 -36.332,0 0,89.335 z"
         id="path3144" />
    </clipPath>
    <clipPath
       id="clipPath26587-7-0-3-4"
       clipPathUnits="userSpaceOnUse">
      <path
         id="path26589-0-0-2-7"
         d="m 46,55 106,0 0,-20 -106,0 0,20 z"
         inkscape:connector-curvature="0" />
    </clipPath>
    <linearGradient
       inkscape:collect="always"
       xlink:href="#linearGradient68693"
       id="linearGradient68783"
       gradientUnits="userSpaceOnUse"
       gradientTransform="matrix(8.7928745,0,0,4.42226,-1690.0418,-8310.7344)"
       x1="279.37509"
       y1="2429.0149"
       x2="279.8754"
       y2="2618.5195" />
    <linearGradient
       inkscape:collect="always"
       xlink:href="#linearGradient68693"
       id="linearGradient69347"
       gradientUnits="userSpaceOnUse"
       gradientTransform="matrix(8.7928745,0,0,3.9684452,-1710.0418,-7197.4114)"
       x1="279.37509"
       y1="2429.0149"
       x2="279.8754"
       y2="2618.5195" />
    <linearGradient
       inkscape:collect="always"
       xlink:href="#linearGradient68693"
       id="linearGradient69455"
       gradientUnits="userSpaceOnUse"
       gradientTransform="matrix(8.7928745,0,0,2.9763849,-1710.0418,-4787.6821)"
       x1="279.37509"
       y1="2429.0149"
       x2="279.8754"
       y2="2618.5195" />
    <clipPath
       id="clipPath26517-0-2-7-6"
       clipPathUnits="userSpaceOnUse">
      <path
         id="path26519-4-1-3-5"
         d="m 46,170 143,0 0,-20 -143,0 0,20 z"
         inkscape:connector-curvature="0" />
    </clipPath>
    <clipPath
       id="clipPath26531-5-2-9-6"
       clipPathUnits="userSpaceOnUse">
      <path
         id="path26533-2-9-0-5"
         d="m 46,147 273,0 0,-20 -273,0 0,20 z"
         inkscape:connector-curvature="0" />
    </clipPath>
    <clipPath
       id="clipPath26545-8-5-5-1"
       clipPathUnits="userSpaceOnUse">
      <path
         id="path26547-2-0-1-6"
         d="m 46,124 171,0 0,-20 -171,0 0,20 z"
         inkscape:connector-curvature="0" />
    </clipPath>
    <clipPath
       id="clipPath26559-2-4-0-9"
       clipPathUnits="userSpaceOnUse">
      <path
         id="path26561-2-1-3-2"
         d="m 46,101 204,0 0,-20 -204,0 0,20 z"
         inkscape:connector-curvature="0" />
    </clipPath>
    <clipPath
       id="clipPath26573-6-7-4-0"
       clipPathUnits="userSpaceOnUse">
      <path
         id="path26575-3-5-9-9"
         d="m 46,78 94,0 0,-20 -94,0 0,20 z"
         inkscape:connector-curvature="0" />
    </clipPath>
    <clipPath
       id="clipPath26587-7-0-3-1"
       clipPathUnits="userSpaceOnUse">
      <path
         id="path26589-0-0-2-2"
         d="m 46,55 106,0 0,-20 -106,0 0,20 z"
         inkscape:connector-curvature="0" />
    </clipPath>
    <clipPath
       id="clipPath26603-7-0-5-3"
       clipPathUnits="userSpaceOnUse">
      <path
         id="path26605-3-3-1-1"
         d="m 35,170 2,0 0,-20 -2,0 0,20 z"
         inkscape:connector-curvature="0" />
    </clipPath>
    <clipPath
       id="clipPath26617-4-6-0-8"
       clipPathUnits="userSpaceOnUse">
      <path
         id="path26619-7-3-0-2"
         d="m 35,147 2,0 0,-20 -2,0 0,20 z"
         inkscape:connector-curvature="0" />
    </clipPath>
    <clipPath
       id="clipPath26631-7-1-3-0"
       clipPathUnits="userSpaceOnUse">
      <path
         id="path26633-3-7-5-2"
         d="m 35,124 2,0 0,-20 -2,0 0,20 z"
         inkscape:connector-curvature="0" />
    </clipPath>
    <clipPath
       id="clipPath26645-9-2-6-4"
       clipPathUnits="userSpaceOnUse">
      <path
         id="path26647-7-5-3-6"
         d="m 35,101 2,0 0,-20 -2,0 0,20 z"
         inkscape:connector-curvature="0" />
    </clipPath>
    <clipPath
       id="clipPath26659-2-9-9-9"
       clipPathUnits="userSpaceOnUse">
      <path
         id="path26661-3-0-5-7"
         d="m 35,78 2,0 0,-20 -2,0 0,20 z"
         inkscape:connector-curvature="0" />
    </clipPath>
    <clipPath
       id="clipPath26673-2-9-7-2"
       clipPathUnits="userSpaceOnUse">
      <path
         id="path26675-3-2-7-5"
         d="m 35,55 2,0 0,-20 -2,0 0,20 z"
         inkscape:connector-curvature="0" />
    </clipPath>
    <linearGradient
       inkscape:collect="always"
       xlink:href="#linearGradient68693"
       id="linearGradient69658"
       gradientUnits="userSpaceOnUse"
       gradientTransform="matrix(8.7928745,0,0,2.7389237,-1710.0418,-4165.8852)"
       x1="279.37509"
       y1="2429.0149"
       x2="279.8754"
       y2="2618.5195" />
    <linearGradient
       inkscape:collect="always"
       xlink:href="#linearGradient68693"
       id="linearGradient69688"
       gradientUnits="userSpaceOnUse"
       gradientTransform="matrix(8.7928745,0,0,2.2165089,-1710.0418,-2935.932)"
       x1="279.99084"
       y1="2443.5425"
       x2="279.8754"
       y2="2618.5195" />
    <mask
       maskUnits="userSpaceOnUse"
       id="mask69684">
      <rect
         y="2448.0012"
         x="69.96257"
         height="420.0387"
         width="1287.0228"
         id="rect69686"
         style="fill:url(#linearGradient69688);fill-opacity:1;fill-rule:nonzero;stroke:none" />
    </mask>
    <linearGradient
       inkscape:collect="always"
       xlink:href="#linearGradient9577"
       id="linearGradient9583"
       x1="1311.9058"
       y1="1957.6202"
       x2="1334.438"
       y2="1962.9236"
       gradientUnits="userSpaceOnUse" />
  </defs>
  <metadata
     id="metadata7261">
    <rdf:RDF>
      <cc:Work
         rdf:about="">
        <dc:format>image/svg+xml</dc:format>
        <dc:type
           rdf:resource="http://purl.org/dc/dcmitype/StillImage" />
        <dc:title></dc:title>
      </cc:Work>
    </rdf:RDF>
  </metadata>
  <g
     transform="translate(-236.51515,-2136.4842)"
     style="display:inline"
     inkscape:label="timeline"
     id="layer6"
     inkscape:groupmode="layer">
    <path
       style="fill:#ffffff;fill-opacity:1;fill-rule:evenodd"
       d="m 246.45329,2138.4847 c -2.15399,0.067 -3.60342,0.7058 -4.8537,1.709 -0.3577,0.2871 -0.91969,0.6528 -1.09379,0.9912 -0.23141,0.4502 -0.31638,1.273 -0.30763,1.9141 0.0379,2.8102 1.11915,4.9924 3.17883,5.6741 0.0764,-2.1001 0.46841,-4.0144 0.99125,-5.7424 0.45015,-1.4878 1.0154,-3.0087 1.81159,-4.1017 0.10467,-0.1436 0.2892,-0.241 0.27345,-0.4443 z m 0.64943,0 c -0.0224,0 -0.18075,0.08 -0.1709,0.068 -1.05104,1.0318 -1.6735,2.8246 -2.18758,4.546 -0.53616,1.7956 -0.92245,3.8044 -0.99125,5.7424 1.30021,0.069 2.29363,-0.4365 3.11047,-0.9912 2.44545,-1.6605 4.08293,-4.1692 5.70822,-6.597 -1.23842,-1.4148 -3.09685,-2.6603 -5.46896,-2.7686 z m 5.74241,3.0763 c -0.95638,1.4684 -2.15362,3.1361 -3.48646,4.5802 -1.32242,1.433 -3.09963,3.0821 -5.63986,3.1104 0.002,0.4569 -0.0131,0.9211 0.0341,1.3331 2.99568,0.5334 6.53186,0.2176 8.71615,-0.8545 0.68282,-0.3351 1.62991,-0.8901 1.87995,-1.5381 0.19445,-0.5044 0.18852,-1.2797 0.17091,-1.9142 -0.0563,-2.0247 -0.82638,-3.6987 -1.67487,-4.7169 z m -12.92041,0.3759 c -0.71002,1.0856 -1.3335,2.4233 -1.40142,4.2384 -0.0212,0.5653 -0.0638,1.2813 0.10249,1.7433 0.25946,0.7207 1.31443,1.3266 2.01668,1.6748 0.85669,0.425 1.73484,0.6845 2.73447,0.8887 -0.0408,-0.4181 -0.0353,-0.8722 -0.0341,-1.333 -2.71623,-0.776 -3.68256,-3.772 -3.4181,-7.2122 z m -1.05961,6.8704 c 0.27988,0.907 0.72834,1.8467 1.29888,2.5635 0.15272,0.192 0.46766,0.6102 0.61525,0.6495 0.27311,0.072 0.751,-0.055 1.16216,-0.068 0.56986,-0.019 1.09689,0 1.57232,0.034 -0.0211,-0.3847 -0.11129,-0.7133 -0.10249,-1.1279 -1.83797,-0.3624 -3.42857,-0.968 -4.54607,-2.0508 z m 15.17635,0.2735 c -1.99232,1.9849 -6.45374,2.4763 -10.25429,1.8457 0.005,0.4109 0.0605,0.7878 0.13672,1.128 1.87005,0.3078 3.26465,1.1482 5.05879,1.5723 0.25824,0.06 0.62295,0.1906 0.82034,0.1709 0.35867,-0.035 1.06054,-0.5723 1.40142,-0.8203 1.26172,-0.9179 2.4872,-2.4517 2.83702,-3.8966 z m -11.68989,3.2471 c -0.42088,0 -0.81973,-0.011 -1.19634,0.034 0.69257,0.7067 1.71904,1.3552 2.87121,1.7091 -0.18387,-0.5318 -0.31712,-1.1207 -0.44436,-1.7091 -0.37518,-0.046 -0.80962,-0.035 -1.23051,-0.034 z m 1.64069,0.1028 c 0.0886,0.6699 0.29033,1.2415 0.47853,1.8116 1.38951,0.3692 3.49955,0.3355 4.64861,-0.2393 -1.89081,-0.3417 -3.22653,-1.2404 -5.12714,-1.5723 z"
       id="path5954"
       inkscape:connector-curvature="0" />
  </g>
</svg>
