<?xml version="1.0" encoding="UTF-8" standalone="no"?>
<!-- Created with Inkscape (http://www.inkscape.org/) -->

<svg
   xmlns:dc="http://purl.org/dc/elements/1.1/"
   xmlns:cc="http://creativecommons.org/ns#"
   xmlns:rdf="http://www.w3.org/1999/02/22-rdf-syntax-ns#"
   xmlns:svg="http://www.w3.org/2000/svg"
   xmlns="http://www.w3.org/2000/svg"
   xmlns:xlink="http://www.w3.org/1999/xlink"
   xmlns:sodipodi="http://sodipodi.sourceforge.net/DTD/sodipodi-0.dtd"
   xmlns:inkscape="http://www.inkscape.org/namespaces/inkscape"
   inkscape:export-ydpi="200"
   inkscape:export-xdpi="200"
   inkscape:export-filename="/home/dnyeupe/Dropbox/CV/infoCV/DavidTorralba-InfographicCV.png"
   sodipodi:docname="past_SOSPER.svg"
   inkscape:version="0.48.4 r9939"
   version="1.1"
   id="svg7256"
   height="20"
   width="20">
  <sodipodi:namedview
     id="base"
     pagecolor="#000000"
     bordercolor="#666666"
     borderopacity="1.0"
     inkscape:pageopacity="0.36470588"
     inkscape:pageshadow="2"
     inkscape:zoom="10.24"
     inkscape:cx="26.041486"
     inkscape:cy="8.9843137"
     inkscape:document-units="px"
     inkscape:current-layer="layer6"
     showgrid="false"
     inkscape:window-width="1535"
     inkscape:window-height="876"
     inkscape:window-x="65"
     inkscape:window-y="24"
     inkscape:window-maximized="1"
     showguides="true"
     inkscape:guide-bbox="true"
     inkscape:snap-global="true"
     fit-margin-top="0"
     fit-margin-left="0"
     fit-margin-right="0"
     fit-margin-bottom="0"
     inkscape:snap-grids="true"
     height="1052.36px">
    <inkscape:grid
       originy="-2843.5157px"
       originx="-236.51515px"
       dotted="true"
       snapvisiblegridlinesonly="true"
       enabled="true"
       visible="true"
       empspacing="5"
       id="grid10841"
       type="xygrid" />
  </sodipodi:namedview>
  <defs
     id="defs7258">
    <linearGradient
       id="linearGradient9577">
      <stop
         style="stop-color:#ffffff;stop-opacity:1;"
         offset="0"
         id="stop9579" />
      <stop
         style="stop-color:#ddd1bf;stop-opacity:1;"
         offset="1"
         id="stop9581" />
    </linearGradient>
    <linearGradient
       id="linearGradient68693">
      <stop
         style="stop-color:#ffffff;stop-opacity:1;"
         offset="0"
         id="stop68695" />
      <stop
         style="stop-color:#000000;stop-opacity:1;"
         offset="1"
         id="stop68697" />
    </linearGradient>
    <linearGradient
       id="linearGradient18772">
      <stop
         style="stop-color:#cfaa75;stop-opacity:1;"
         offset="0"
         id="stop18774" />
      <stop
         style="stop-color:#cfaa75;stop-opacity:0.66060609;"
         offset="1"
         id="stop18776" />
    </linearGradient>
    <linearGradient
       id="linearGradient18764">
      <stop
         style="stop-color:#bda784;stop-opacity:1;"
         offset="0"
         id="stop18766" />
      <stop
         style="stop-color:#bda784;stop-opacity:1;"
         offset="1"
         id="stop18768" />
    </linearGradient>
    <linearGradient
       id="linearGradient12741">
      <stop
         style="stop-color:#ffffff;stop-opacity:0;"
         offset="0"
         id="stop12743" />
      <stop
         id="stop12749"
         offset="0.2"
         style="stop-color:#ffffff;stop-opacity:1;" />
      <stop
         id="stop12745"
         offset="0.80000001"
         style="stop-color:#ffffff;stop-opacity:1;" />
      <stop
         style="stop-color:#ffffff;stop-opacity:0;"
         offset="1"
         id="stop12747" />
    </linearGradient>
    <linearGradient
       id="linearGradient7496">
      <stop
         id="stop7498"
         offset="0"
         style="stop-color:#ffffff;stop-opacity:1;" />
      <stop
         style="stop-color:#ffffff;stop-opacity:1;"
         offset="0.2"
         id="stop7504" />
      <stop
         id="stop7500"
         offset="1"
         style="stop-color:#ffffff;stop-opacity:0;" />
    </linearGradient>
    <linearGradient
       id="linearGradient5981"
       inkscape:collect="always">
      <stop
         id="stop5983"
         offset="0"
         style="stop-color:#9291f7;stop-opacity:1;" />
      <stop
         id="stop5985"
         offset="1"
         style="stop-color:#9291f7;stop-opacity:0;" />
    </linearGradient>
    <marker
       style="overflow:visible"
       id="DotL"
       refX="0"
       refY="0"
       orient="auto"
       inkscape:stockid="DotL">
      <path
         inkscape:connector-curvature="0"
         transform="matrix(0.8,0,0,0.8,5.92,0.8)"
         style="fill-rule:evenodd;stroke:#000000;stroke-width:1pt"
         d="m -2.5,-1 c 0,2.76 -2.24,5 -5,5 -2.76,0 -5,-2.24 -5,-5 0,-2.76 2.24,-5 5,-5 2.76,0 5,2.24 5,5 z"
         id="path4214" />
    </marker>
    <linearGradient
       gradientUnits="userSpaceOnUse"
       y2="1065.0002"
       x2="1817.9534"
       y1="1065.0002"
       x1="1280"
       id="linearGradient5987"
       xlink:href="#linearGradient5981"
       inkscape:collect="always" />
    <linearGradient
       spreadMethod="pad"
       gradientUnits="userSpaceOnUse"
       y2="4570"
       x2="1080.0625"
       y1="4570"
       x1="79.9375"
       id="linearGradient12753"
       xlink:href="#linearGradient12741"
       inkscape:collect="always" />
    <linearGradient
       gradientUnits="userSpaceOnUse"
       y2="4570"
       x2="1080.0625"
       y1="4570"
       x1="79.9375"
       id="linearGradient13006"
       xlink:href="#linearGradient12741"
       inkscape:collect="always" />
    <linearGradient
       gradientUnits="userSpaceOnUse"
       y2="4570"
       x2="1040.0625"
       y1="4570"
       x1="119.9375"
       id="linearGradient13008"
       xlink:href="#linearGradient12741"
       inkscape:collect="always" />
    <linearGradient
       gradientUnits="userSpaceOnUse"
       y2="4570"
       x2="1080.0625"
       y1="4570"
       x1="79.9375"
       id="linearGradient13416"
       xlink:href="#linearGradient12741"
       inkscape:collect="always" />
    <linearGradient
       id="linearGradient12741-9">
      <stop
         style="stop-color:#ffffff;stop-opacity:0;"
         offset="0"
         id="stop12743-9" />
      <stop
         id="stop12749-2"
         offset="0.2"
         style="stop-color:#ffffff;stop-opacity:1;" />
      <stop
         id="stop12745-1"
         offset="0.80000001"
         style="stop-color:#ffffff;stop-opacity:1;" />
      <stop
         style="stop-color:#ffffff;stop-opacity:0;"
         offset="1"
         id="stop12747-6" />
    </linearGradient>
    <linearGradient
       id="linearGradient13461">
      <stop
         style="stop-color:#ffffff;stop-opacity:0;"
         offset="0"
         id="stop13463" />
      <stop
         id="stop13465"
         offset="0.2"
         style="stop-color:#ffffff;stop-opacity:1;" />
      <stop
         id="stop13467"
         offset="0.80000001"
         style="stop-color:#ffffff;stop-opacity:1;" />
      <stop
         style="stop-color:#ffffff;stop-opacity:0;"
         offset="1"
         id="stop13469" />
    </linearGradient>
    <linearGradient
       id="linearGradient13472">
      <stop
         style="stop-color:#ffffff;stop-opacity:0;"
         offset="0"
         id="stop13474" />
      <stop
         id="stop13476"
         offset="0.2"
         style="stop-color:#ffffff;stop-opacity:1;" />
      <stop
         id="stop13478"
         offset="0.80000001"
         style="stop-color:#ffffff;stop-opacity:1;" />
      <stop
         style="stop-color:#ffffff;stop-opacity:0;"
         offset="1"
         id="stop13480" />
    </linearGradient>
    <linearGradient
       id="linearGradient13483">
      <stop
         style="stop-color:#ffffff;stop-opacity:0;"
         offset="0"
         id="stop13485" />
      <stop
         id="stop13487"
         offset="0.2"
         style="stop-color:#ffffff;stop-opacity:1;" />
      <stop
         id="stop13489"
         offset="0.80000001"
         style="stop-color:#ffffff;stop-opacity:1;" />
      <stop
         style="stop-color:#ffffff;stop-opacity:0;"
         offset="1"
         id="stop13491" />
    </linearGradient>
    <linearGradient
       id="linearGradient13494">
      <stop
         style="stop-color:#ffffff;stop-opacity:0;"
         offset="0"
         id="stop13496" />
      <stop
         id="stop13498"
         offset="0.2"
         style="stop-color:#ffffff;stop-opacity:1;" />
      <stop
         id="stop13500"
         offset="0.80000001"
         style="stop-color:#ffffff;stop-opacity:1;" />
      <stop
         style="stop-color:#ffffff;stop-opacity:0;"
         offset="1"
         id="stop13502" />
    </linearGradient>
    <linearGradient
       id="linearGradient13505">
      <stop
         style="stop-color:#ffffff;stop-opacity:0;"
         offset="0"
         id="stop13507" />
      <stop
         id="stop13509"
         offset="0.2"
         style="stop-color:#ffffff;stop-opacity:1;" />
      <stop
         id="stop13511"
         offset="0.80000001"
         style="stop-color:#ffffff;stop-opacity:1;" />
      <stop
         style="stop-color:#ffffff;stop-opacity:0;"
         offset="1"
         id="stop13513" />
    </linearGradient>
    <linearGradient
       id="linearGradient13516">
      <stop
         style="stop-color:#ffffff;stop-opacity:0;"
         offset="0"
         id="stop13518" />
      <stop
         id="stop13520"
         offset="0.2"
         style="stop-color:#ffffff;stop-opacity:1;" />
      <stop
         id="stop13522"
         offset="0.80000001"
         style="stop-color:#ffffff;stop-opacity:1;" />
      <stop
         style="stop-color:#ffffff;stop-opacity:0;"
         offset="1"
         id="stop13524" />
    </linearGradient>
    <linearGradient
       id="linearGradient13527">
      <stop
         style="stop-color:#ffffff;stop-opacity:0;"
         offset="0"
         id="stop13529" />
      <stop
         id="stop13531"
         offset="0.2"
         style="stop-color:#ffffff;stop-opacity:1;" />
      <stop
         id="stop13533"
         offset="0.80000001"
         style="stop-color:#ffffff;stop-opacity:1;" />
      <stop
         style="stop-color:#ffffff;stop-opacity:0;"
         offset="1"
         id="stop13535" />
    </linearGradient>
    <linearGradient
       id="linearGradient13538">
      <stop
         style="stop-color:#ffffff;stop-opacity:0;"
         offset="0"
         id="stop13540" />
      <stop
         id="stop13542"
         offset="0.2"
         style="stop-color:#ffffff;stop-opacity:1;" />
      <stop
         id="stop13544"
         offset="0.80000001"
         style="stop-color:#ffffff;stop-opacity:1;" />
      <stop
         style="stop-color:#ffffff;stop-opacity:0;"
         offset="1"
         id="stop13546" />
    </linearGradient>
    <linearGradient
       id="linearGradient13549">
      <stop
         style="stop-color:#ffffff;stop-opacity:0;"
         offset="0"
         id="stop13551" />
      <stop
         id="stop13553"
         offset="0.2"
         style="stop-color:#ffffff;stop-opacity:1;" />
      <stop
         id="stop13555"
         offset="0.80000001"
         style="stop-color:#ffffff;stop-opacity:1;" />
      <stop
         style="stop-color:#ffffff;stop-opacity:0;"
         offset="1"
         id="stop13557" />
    </linearGradient>
    <linearGradient
       id="linearGradient13560">
      <stop
         style="stop-color:#ffffff;stop-opacity:0;"
         offset="0"
         id="stop13562" />
      <stop
         id="stop13564"
         offset="0.2"
         style="stop-color:#ffffff;stop-opacity:1;" />
      <stop
         id="stop13566"
         offset="0.80000001"
         style="stop-color:#ffffff;stop-opacity:1;" />
      <stop
         style="stop-color:#ffffff;stop-opacity:0;"
         offset="1"
         id="stop13568" />
    </linearGradient>
    <linearGradient
       y2="4570"
       x2="1080.0625"
       y1="4570"
       x1="79.9375"
       gradientUnits="userSpaceOnUse"
       id="linearGradient13418-4"
       xlink:href="#linearGradient12741-9"
       inkscape:collect="always" />
    <linearGradient
       id="linearGradient13571">
      <stop
         style="stop-color:#ffffff;stop-opacity:0;"
         offset="0"
         id="stop13573" />
      <stop
         id="stop13575"
         offset="0.2"
         style="stop-color:#ffffff;stop-opacity:1;" />
      <stop
         id="stop13577"
         offset="0.80000001"
         style="stop-color:#ffffff;stop-opacity:1;" />
      <stop
         style="stop-color:#ffffff;stop-opacity:0;"
         offset="1"
         id="stop13579" />
    </linearGradient>
    <clipPath
       id="clipPath16705-6"
       clipPathUnits="userSpaceOnUse">
      <path
         id="path16707-3"
         d="m 39.0786,6711.92 155.8424,0 0,-155.84 -155.8424,0 0,155.84 z"
         inkscape:connector-curvature="0" />
    </clipPath>
    <clipPath
       id="clipPath16721-9"
       clipPathUnits="userSpaceOnUse">
      <path
         id="path16723-9"
         d="m 47.3164,6703.68 139.3666,0 0,-139.36 -139.3666,0 0,139.36 z"
         inkscape:connector-curvature="0" />
    </clipPath>
    <clipPath
       id="clipPath16737-2"
       clipPathUnits="userSpaceOnUse">
      <path
         id="path16739-3"
         d="m 55.4277,6695.57 123.1443,0 0,-123.14 -123.1443,0 0,123.14 z"
         inkscape:connector-curvature="0" />
    </clipPath>
    <clipPath
       id="clipPath16753-4"
       clipPathUnits="userSpaceOnUse">
      <path
         id="path16755-5"
         d="m 63.6021,6687.4 106.7959,0 0,-106.8 -106.7959,0 0,106.8 z"
         inkscape:connector-curvature="0" />
    </clipPath>
    <clipPath
       id="clipPath16769-9"
       clipPathUnits="userSpaceOnUse">
      <path
         id="path16771-9"
         d="m 71.5591,6679.44 90.8819,0 0,-90.88 -90.8819,0 0,90.88 z"
         inkscape:connector-curvature="0" />
    </clipPath>
    <clipPath
       id="clipPath16785-2"
       clipPathUnits="userSpaceOnUse">
      <path
         id="path16787-5"
         d="m 79.4243,6671.58 75.1517,0 0,-75.16 -75.1517,0 0,75.16 z"
         inkscape:connector-curvature="0" />
    </clipPath>
    <clipPath
       id="clipPath16839-6"
       clipPathUnits="userSpaceOnUse">
      <path
         id="path16841-0"
         d="m 31.4937,6636.5 88.0063,0 0,-88.01 -88.0063,0 0,88.01 z"
         inkscape:connector-curvature="0" />
    </clipPath>
    <clipPath
       id="clipPath16855-6"
       clipPathUnits="userSpaceOnUse">
      <path
         id="path16857-0"
         d="m 40.0786,6710.92 79.4214,0 0,-153.84 -79.4214,0 0,153.84 z"
         inkscape:connector-curvature="0" />
    </clipPath>
    <clipPath
       id="clipPath16871-9"
       clipPathUnits="userSpaceOnUse">
      <path
         id="path16873-1"
         d="m 48.3164,6702.68 137.3666,0 0,-137.36 -137.3666,0 0,137.36 z"
         inkscape:connector-curvature="0" />
    </clipPath>
    <clipPath
       id="clipPath16887-4"
       clipPathUnits="userSpaceOnUse">
      <path
         id="path16889-0"
         d="m 56.4277,6682.61 63.0723,0 0,-109.18 -63.0723,0 0,109.18 z"
         inkscape:connector-curvature="0" />
    </clipPath>
    <clipPath
       id="clipPath16903-6"
       clipPathUnits="userSpaceOnUse">
      <path
         id="path16905-9"
         d="m 64.6021,6669.22 54.8979,0 0,-87.62 -54.8979,0 0,87.62 z"
         inkscape:connector-curvature="0" />
    </clipPath>
    <clipPath
       id="clipPath16919-8"
       clipPathUnits="userSpaceOnUse">
      <path
         id="path16921-1"
         d="m 79.7573,6613 39.7427,0 0,-23.44 -39.7427,0 0,23.44 z"
         inkscape:connector-curvature="0" />
    </clipPath>
    <clipPath
       id="clipPath16935-4"
       clipPathUnits="userSpaceOnUse">
      <path
         id="path16937-0"
         d="m 81.2959,6628.81 38.2041,0 0,-31.39 -38.2041,0 0,31.39 z"
         inkscape:connector-curvature="0" />
    </clipPath>
    <clipPath
       id="clipPath26673-2"
       clipPathUnits="userSpaceOnUse">
      <path
         id="path26675-3"
         d="m 35,55 2,0 0,-20 -2,0 0,20 z"
         inkscape:connector-curvature="0" />
    </clipPath>
    <clipPath
       id="clipPath26659-2"
       clipPathUnits="userSpaceOnUse">
      <path
         id="path26661-3"
         d="m 35,78 2,0 0,-20 -2,0 0,20 z"
         inkscape:connector-curvature="0" />
    </clipPath>
    <clipPath
       id="clipPath26645-9"
       clipPathUnits="userSpaceOnUse">
      <path
         id="path26647-7"
         d="m 35,101 2,0 0,-20 -2,0 0,20 z"
         inkscape:connector-curvature="0" />
    </clipPath>
    <clipPath
       id="clipPath26631-7"
       clipPathUnits="userSpaceOnUse">
      <path
         id="path26633-3"
         d="m 35,124 2,0 0,-20 -2,0 0,20 z"
         inkscape:connector-curvature="0" />
    </clipPath>
    <clipPath
       id="clipPath26617-4"
       clipPathUnits="userSpaceOnUse">
      <path
         id="path26619-7"
         d="m 35,147 2,0 0,-20 -2,0 0,20 z"
         inkscape:connector-curvature="0" />
    </clipPath>
    <clipPath
       id="clipPath26603-7"
       clipPathUnits="userSpaceOnUse">
      <path
         id="path26605-3"
         d="m 35,170 2,0 0,-20 -2,0 0,20 z"
         inkscape:connector-curvature="0" />
    </clipPath>
    <clipPath
       id="clipPath26587-7"
       clipPathUnits="userSpaceOnUse">
      <path
         id="path26589-0"
         d="m 46,55 106,0 0,-20 -106,0 0,20 z"
         inkscape:connector-curvature="0" />
    </clipPath>
    <clipPath
       id="clipPath26573-6"
       clipPathUnits="userSpaceOnUse">
      <path
         id="path26575-3"
         d="m 46,78 94,0 0,-20 -94,0 0,20 z"
         inkscape:connector-curvature="0" />
    </clipPath>
    <clipPath
       id="clipPath26559-2"
       clipPathUnits="userSpaceOnUse">
      <path
         id="path26561-2"
         d="m 46,101 204,0 0,-20 -204,0 0,20 z"
         inkscape:connector-curvature="0" />
    </clipPath>
    <clipPath
       id="clipPath26545-8"
       clipPathUnits="userSpaceOnUse">
      <path
         id="path26547-2"
         d="m 46,124 171,0 0,-20 -171,0 0,20 z"
         inkscape:connector-curvature="0" />
    </clipPath>
    <clipPath
       id="clipPath26531-5"
       clipPathUnits="userSpaceOnUse">
      <path
         id="path26533-2"
         d="m 46,147 273,0 0,-20 -273,0 0,20 z"
         inkscape:connector-curvature="0" />
    </clipPath>
    <clipPath
       id="clipPath26517-0"
       clipPathUnits="userSpaceOnUse">
      <path
         id="path26519-4"
         d="m 46,170 143,0 0,-20 -143,0 0,20 z"
         inkscape:connector-curvature="0" />
    </clipPath>
    <clipPath
       id="clipPath26517-0-2"
       clipPathUnits="userSpaceOnUse">
      <path
         id="path26519-4-1"
         d="m 46,170 143,0 0,-20 -143,0 0,20 z"
         inkscape:connector-curvature="0" />
    </clipPath>
    <clipPath
       id="clipPath26531-5-2"
       clipPathUnits="userSpaceOnUse">
      <path
         id="path26533-2-9"
         d="m 46,147 273,0 0,-20 -273,0 0,20 z"
         inkscape:connector-curvature="0" />
    </clipPath>
    <clipPath
       id="clipPath26545-8-5"
       clipPathUnits="userSpaceOnUse">
      <path
         id="path26547-2-0"
         d="m 46,124 171,0 0,-20 -171,0 0,20 z"
         inkscape:connector-curvature="0" />
    </clipPath>
    <clipPath
       id="clipPath26559-2-4"
       clipPathUnits="userSpaceOnUse">
      <path
         id="path26561-2-1"
         d="m 46,101 204,0 0,-20 -204,0 0,20 z"
         inkscape:connector-curvature="0" />
    </clipPath>
    <clipPath
       id="clipPath26573-6-7"
       clipPathUnits="userSpaceOnUse">
      <path
         id="path26575-3-5"
         d="m 46,78 94,0 0,-20 -94,0 0,20 z"
         inkscape:connector-curvature="0" />
    </clipPath>
    <clipPath
       id="clipPath26587-7-0"
       clipPathUnits="userSpaceOnUse">
      <path
         id="path26589-0-0"
         d="m 46,55 106,0 0,-20 -106,0 0,20 z"
         inkscape:connector-curvature="0" />
    </clipPath>
    <clipPath
       id="clipPath26603-7-0"
       clipPathUnits="userSpaceOnUse">
      <path
         id="path26605-3-3"
         d="m 35,170 2,0 0,-20 -2,0 0,20 z"
         inkscape:connector-curvature="0" />
    </clipPath>
    <clipPath
       id="clipPath26617-4-6"
       clipPathUnits="userSpaceOnUse">
      <path
         id="path26619-7-3"
         d="m 35,147 2,0 0,-20 -2,0 0,20 z"
         inkscape:connector-curvature="0" />
    </clipPath>
    <clipPath
       id="clipPath26631-7-1"
       clipPathUnits="userSpaceOnUse">
      <path
         id="path26633-3-7"
         d="m 35,124 2,0 0,-20 -2,0 0,20 z"
         inkscape:connector-curvature="0" />
    </clipPath>
    <clipPath
       id="clipPath26645-9-2"
       clipPathUnits="userSpaceOnUse">
      <path
         id="path26647-7-5"
         d="m 35,101 2,0 0,-20 -2,0 0,20 z"
         inkscape:connector-curvature="0" />
    </clipPath>
    <clipPath
       id="clipPath26659-2-9"
       clipPathUnits="userSpaceOnUse">
      <path
         id="path26661-3-0"
         d="m 35,78 2,0 0,-20 -2,0 0,20 z"
         inkscape:connector-curvature="0" />
    </clipPath>
    <clipPath
       id="clipPath26673-2-9"
       clipPathUnits="userSpaceOnUse">
      <path
         id="path26675-3-2"
         d="m 35,55 2,0 0,-20 -2,0 0,20 z"
         inkscape:connector-curvature="0" />
    </clipPath>
    <clipPath
       id="clipPath26517-0-2-7"
       clipPathUnits="userSpaceOnUse">
      <path
         id="path26519-4-1-3"
         d="m 46,170 143,0 0,-20 -143,0 0,20 z"
         inkscape:connector-curvature="0" />
    </clipPath>
    <clipPath
       id="clipPath26531-5-2-9"
       clipPathUnits="userSpaceOnUse">
      <path
         id="path26533-2-9-0"
         d="m 46,147 273,0 0,-20 -273,0 0,20 z"
         inkscape:connector-curvature="0" />
    </clipPath>
    <clipPath
       id="clipPath26545-8-5-5"
       clipPathUnits="userSpaceOnUse">
      <path
         id="path26547-2-0-1"
         d="m 46,124 171,0 0,-20 -171,0 0,20 z"
         inkscape:connector-curvature="0" />
    </clipPath>
    <clipPath
       id="clipPath26559-2-4-0"
       clipPathUnits="userSpaceOnUse">
      <path
         id="path26561-2-1-3"
         d="m 46,101 204,0 0,-20 -204,0 0,20 z"
         inkscape:connector-curvature="0" />
    </clipPath>
    <clipPath
       id="clipPath26573-6-7-4"
       clipPathUnits="userSpaceOnUse">
      <path
         id="path26575-3-5-9"
         d="m 46,78 94,0 0,-20 -94,0 0,20 z"
         inkscape:connector-curvature="0" />
    </clipPath>
    <clipPath
       id="clipPath26587-7-0-3"
       clipPathUnits="userSpaceOnUse">
      <path
         id="path26589-0-0-2"
         d="m 46,55 106,0 0,-20 -106,0 0,20 z"
         inkscape:connector-curvature="0" />
    </clipPath>
    <clipPath
       id="clipPath26603-7-0-5"
       clipPathUnits="userSpaceOnUse">
      <path
         id="path26605-3-3-1"
         d="m 35,170 2,0 0,-20 -2,0 0,20 z"
         inkscape:connector-curvature="0" />
    </clipPath>
    <clipPath
       id="clipPath26617-4-6-0"
       clipPathUnits="userSpaceOnUse">
      <path
         id="path26619-7-3-0"
         d="m 35,147 2,0 0,-20 -2,0 0,20 z"
         inkscape:connector-curvature="0" />
    </clipPath>
    <clipPath
       id="clipPath26631-7-1-3"
       clipPathUnits="userSpaceOnUse">
      <path
         id="path26633-3-7-5"
         d="m 35,124 2,0 0,-20 -2,0 0,20 z"
         inkscape:connector-curvature="0" />
    </clipPath>
    <clipPath
       id="clipPath26645-9-2-6"
       clipPathUnits="userSpaceOnUse">
      <path
         id="path26647-7-5-3"
         d="m 35,101 2,0 0,-20 -2,0 0,20 z"
         inkscape:connector-curvature="0" />
    </clipPath>
    <clipPath
       id="clipPath26659-2-9-9"
       clipPathUnits="userSpaceOnUse">
      <path
         id="path26661-3-0-5"
         d="m 35,78 2,0 0,-20 -2,0 0,20 z"
         inkscape:connector-curvature="0" />
    </clipPath>
    <clipPath
       id="clipPath26673-2-9-7"
       clipPathUnits="userSpaceOnUse">
      <path
         id="path26675-3-2-7"
         d="m 35,55 2,0 0,-20 -2,0 0,20 z"
         inkscape:connector-curvature="0" />
    </clipPath>
    <linearGradient
       id="linearGradient18764-2">
      <stop
         style="stop-color:#bda784;stop-opacity:0.9878788;"
         offset="0"
         id="stop18766-8" />
      <stop
         style="stop-color:#bda784;stop-opacity:0.68484849;"
         offset="1"
         id="stop18768-8" />
    </linearGradient>
    <clipPath
       clipPathUnits="userSpaceOnUse"
       id="clipPath3142">
      <path
         inkscape:connector-curvature="0"
         d="m 161,978 36.332,0 0,-89.335 -36.332,0 0,89.335 z"
         id="path3144" />
    </clipPath>
    <clipPath
       id="clipPath26587-7-0-3-4"
       clipPathUnits="userSpaceOnUse">
      <path
         id="path26589-0-0-2-7"
         d="m 46,55 106,0 0,-20 -106,0 0,20 z"
         inkscape:connector-curvature="0" />
    </clipPath>
    <linearGradient
       inkscape:collect="always"
       xlink:href="#linearGradient68693"
       id="linearGradient68783"
       gradientUnits="userSpaceOnUse"
       gradientTransform="matrix(8.7928745,0,0,4.42226,-1690.0418,-8310.7344)"
       x1="279.37509"
       y1="2429.0149"
       x2="279.8754"
       y2="2618.5195" />
    <linearGradient
       inkscape:collect="always"
       xlink:href="#linearGradient68693"
       id="linearGradient69347"
       gradientUnits="userSpaceOnUse"
       gradientTransform="matrix(8.7928745,0,0,3.9684452,-1710.0418,-7197.4114)"
       x1="279.37509"
       y1="2429.0149"
       x2="279.8754"
       y2="2618.5195" />
    <linearGradient
       inkscape:collect="always"
       xlink:href="#linearGradient68693"
       id="linearGradient69455"
       gradientUnits="userSpaceOnUse"
       gradientTransform="matrix(8.7928745,0,0,2.9763849,-1710.0418,-4787.6821)"
       x1="279.37509"
       y1="2429.0149"
       x2="279.8754"
       y2="2618.5195" />
    <clipPath
       id="clipPath26517-0-2-7-6"
       clipPathUnits="userSpaceOnUse">
      <path
         id="path26519-4-1-3-5"
         d="m 46,170 143,0 0,-20 -143,0 0,20 z"
         inkscape:connector-curvature="0" />
    </clipPath>
    <clipPath
       id="clipPath26531-5-2-9-6"
       clipPathUnits="userSpaceOnUse">
      <path
         id="path26533-2-9-0-5"
         d="m 46,147 273,0 0,-20 -273,0 0,20 z"
         inkscape:connector-curvature="0" />
    </clipPath>
    <clipPath
       id="clipPath26545-8-5-5-1"
       clipPathUnits="userSpaceOnUse">
      <path
         id="path26547-2-0-1-6"
         d="m 46,124 171,0 0,-20 -171,0 0,20 z"
         inkscape:connector-curvature="0" />
    </clipPath>
    <clipPath
       id="clipPath26559-2-4-0-9"
       clipPathUnits="userSpaceOnUse">
      <path
         id="path26561-2-1-3-2"
         d="m 46,101 204,0 0,-20 -204,0 0,20 z"
         inkscape:connector-curvature="0" />
    </clipPath>
    <clipPath
       id="clipPath26573-6-7-4-0"
       clipPathUnits="userSpaceOnUse">
      <path
         id="path26575-3-5-9-9"
         d="m 46,78 94,0 0,-20 -94,0 0,20 z"
         inkscape:connector-curvature="0" />
    </clipPath>
    <clipPath
       id="clipPath26587-7-0-3-1"
       clipPathUnits="userSpaceOnUse">
      <path
         id="path26589-0-0-2-2"
         d="m 46,55 106,0 0,-20 -106,0 0,20 z"
         inkscape:connector-curvature="0" />
    </clipPath>
    <clipPath
       id="clipPath26603-7-0-5-3"
       clipPathUnits="userSpaceOnUse">
      <path
         id="path26605-3-3-1-1"
         d="m 35,170 2,0 0,-20 -2,0 0,20 z"
         inkscape:connector-curvature="0" />
    </clipPath>
    <clipPath
       id="clipPath26617-4-6-0-8"
       clipPathUnits="userSpaceOnUse">
      <path
         id="path26619-7-3-0-2"
         d="m 35,147 2,0 0,-20 -2,0 0,20 z"
         inkscape:connector-curvature="0" />
    </clipPath>
    <clipPath
       id="clipPath26631-7-1-3-0"
       clipPathUnits="userSpaceOnUse">
      <path
         id="path26633-3-7-5-2"
         d="m 35,124 2,0 0,-20 -2,0 0,20 z"
         inkscape:connector-curvature="0" />
    </clipPath>
    <clipPath
       id="clipPath26645-9-2-6-4"
       clipPathUnits="userSpaceOnUse">
      <path
         id="path26647-7-5-3-6"
         d="m 35,101 2,0 0,-20 -2,0 0,20 z"
         inkscape:connector-curvature="0" />
    </clipPath>
    <clipPath
       id="clipPath26659-2-9-9-9"
       clipPathUnits="userSpaceOnUse">
      <path
         id="path26661-3-0-5-7"
         d="m 35,78 2,0 0,-20 -2,0 0,20 z"
         inkscape:connector-curvature="0" />
    </clipPath>
    <clipPath
       id="clipPath26673-2-9-7-2"
       clipPathUnits="userSpaceOnUse">
      <path
         id="path26675-3-2-7-5"
         d="m 35,55 2,0 0,-20 -2,0 0,20 z"
         inkscape:connector-curvature="0" />
    </clipPath>
    <linearGradient
       inkscape:collect="always"
       xlink:href="#linearGradient68693"
       id="linearGradient69658"
       gradientUnits="userSpaceOnUse"
       gradientTransform="matrix(8.7928745,0,0,2.7389237,-1710.0418,-4165.8852)"
       x1="279.37509"
       y1="2429.0149"
       x2="279.8754"
       y2="2618.5195" />
    <linearGradient
       inkscape:collect="always"
       xlink:href="#linearGradient68693"
       id="linearGradient69688"
       gradientUnits="userSpaceOnUse"
       gradientTransform="matrix(8.7928745,0,0,2.2165089,-1710.0418,-2935.932)"
       x1="279.99084"
       y1="2443.5425"
       x2="279.8754"
       y2="2618.5195" />
    <mask
       maskUnits="userSpaceOnUse"
       id="mask69684">
      <rect
         y="2448.0012"
         x="69.96257"
         height="420.0387"
         width="1287.0228"
         id="rect69686"
         style="fill:url(#linearGradient69688);fill-opacity:1;fill-rule:nonzero;stroke:none" />
    </mask>
    <linearGradient
       inkscape:collect="always"
       xlink:href="#linearGradient9577"
       id="linearGradient9583"
       x1="1311.9058"
       y1="1957.6202"
       x2="1334.438"
       y2="1962.9236"
       gradientUnits="userSpaceOnUse" />
  </defs>
  <metadata
     id="metadata7261">
    <rdf:RDF>
      <cc:Work
         rdf:about="">
        <dc:format>image/svg+xml</dc:format>
        <dc:type
           rdf:resource="http://purl.org/dc/dcmitype/StillImage" />
        <dc:title />
      </cc:Work>
    </rdf:RDF>
  </metadata>
  <g
     transform="translate(-236.51515,-2136.4842)"
     style="display:inline"
     inkscape:label="timeline"
     id="layer6"
     inkscape:groupmode="layer">
    <path
       inkscape:connector-curvature="0"
       id="path1919-9"
       d="m 246.51515,2138.4842 c -0.82638,0.01 -1.4752,0.6429 -1.46875,1.4375 0.004,0.5959 0.36754,1.1293 0.90625,1.3437 0.01,0.095 0.0297,0.2324 0.0312,0.4375 l 0,0.5938 -1.4375,0 c -1.15024,-0.01 -1.50919,-0.01 -1.59375,0.062 -0.13522,0.114 -0.13285,0.8722 0,0.875 l 2.96875,-0.031 c 0.009,0.7147 0.0348,1.4416 0.0312,2.1563 -0.0222,1.4765 -0.0291,2.9609 -0.0312,4.4375 1.8e-4,0.7997 -0.0325,1.5492 -0.0625,1.6875 -0.1132,0.5211 -0.42422,0.613 -1.4375,0.3437 -1.05379,-0.28 -2.3713,-0.9162 -2.59375,-1.25 -0.17685,-0.2653 -0.21897,-0.4844 -0.0937,-0.625 0.0624,-0.07 0.16713,-0.113 0.21875,-0.094 0.0571,0.021 0.12104,-0.029 0.15625,-0.125 0.12394,-0.338 -0.3203,-0.8242 -1.15625,-1.3125 -0.20318,-0.1187 -0.51498,-0.3999 -0.71875,-0.5938 -0.2138,-0.2033 -0.4258,-0.3092 -0.46875,-0.2812 -0.13365,0.087 -0.3875,0.6844 -0.46875,1.0937 -0.16334,0.823 0.0648,2.0588 0.46875,2.5313 0.21322,0.2494 0.32768,0.2466 0.375,0 0.0834,-0.4345 0.62587,-0.3045 1.21875,0.2812 0.46923,0.4636 1.36244,1.1321 1.75,1.3125 0.14763,0.069 0.3579,0.1819 0.46875,0.25 0.11085,0.068 0.4238,0.183 0.71875,0.2813 0.61792,0.206 1.36849,0.5903 1.65625,0.8437 0.10932,0.096 0.25145,0.2218 0.34375,0.2813 0.16146,0.104 0.17337,0.105 0.28125,-0.062 0.22458,-0.3487 0.62714,-0.6752 1.21875,-0.9688 0.3325,-0.1649 0.65746,-0.2807 0.71875,-0.2812 0.13028,-10e-4 1.2154,-0.5192 1.875,-0.875 0.51688,-0.2788 0.73659,-0.4293 1.3125,-0.9375 0.65018,-0.5737 0.99727,-0.6536 1.34375,-0.2813 l 0.21875,0.25 0.125,-0.1562 c 0.24702,-0.2744 0.33163,-0.5401 0.375,-1.1563 0.0332,-0.4711 0.0313,-0.7482 -0.0625,-1.1562 -0.14816,-0.6446 -0.38232,-1.1866 -0.5625,-1.2813 -0.11376,-0.06 -0.1544,-0.032 -0.25,0.125 -0.16622,0.2731 -0.42428,0.485 -0.875,0.7813 -0.53969,0.3548 -0.83966,0.7023 -0.9375,1.0625 -0.0945,0.348 -0.0587,0.4752 0.125,0.375 0.2004,-0.1093 0.32739,-0.076 0.40625,0.094 0.11102,0.2388 -0.0567,0.4306 -0.6875,0.8125 -1.07744,0.6524 -2.52911,1.1822 -3.21875,1.1875 -0.32543,0 -0.6061,-0.096 -0.65625,-0.25 -0.0242,-0.074 -0.0456,-0.9704 -0.0312,-1.9687 0.0143,-0.9983 0.0508,-2.8566 0.0625,-4.125 0.0117,-1.2684 0.019,-2.3236 0.0312,-2.3438 0.0122,-0.02 0.70094,-0.033 1.53125,-0.031 1.72266,0 1.64415,0.032 1.625,-0.5938 l -0.0312,-0.3437 c -1.02926,-0.064 -2.06829,0.068 -3.09375,-0.062 -0.0195,-0.019 -0.055,-0.2594 -0.0625,-0.5313 l 0,-0.4375 c 0.5689,-0.2075 0.97377,-0.7246 0.96875,-1.3437 -0.006,-0.7946 -0.70487,-1.4439 -1.53125,-1.4375 z m -0.0312,0.6875 c 0.40115,-0 0.74711,0.333 0.75,0.7187 0.003,0.3858 -0.3176,0.6844 -0.71875,0.6875 -0.40116,0 -0.74711,-0.3017 -0.75,-0.6875 -0.003,-0.3857 0.31759,-0.7156 0.71875,-0.7187 z"
       style="fill:#ffffff;fill-opacity:0.82352941;fill-rule:nonzero;stroke:none" />
  </g>
</svg>
