<?xml version="1.0" encoding="UTF-8" standalone="no"?>
<!-- Created with Inkscape (http://www.inkscape.org/) -->

<svg
   xmlns:dc="http://purl.org/dc/elements/1.1/"
   xmlns:cc="http://creativecommons.org/ns#"
   xmlns:rdf="http://www.w3.org/1999/02/22-rdf-syntax-ns#"
   xmlns:svg="http://www.w3.org/2000/svg"
   xmlns="http://www.w3.org/2000/svg"
   xmlns:xlink="http://www.w3.org/1999/xlink"
   xmlns:sodipodi="http://sodipodi.sourceforge.net/DTD/sodipodi-0.dtd"
   xmlns:inkscape="http://www.inkscape.org/namespaces/inkscape"
   inkscape:export-ydpi="200"
   inkscape:export-xdpi="200"
   inkscape:export-filename="/home/dnyeupe/Dropbox/CV/infoCV/DavidTorralba-InfographicCV.png"
   sodipodi:docname="past_projitop.svg"
   inkscape:version="0.48.4 r9939"
   version="1.1"
   id="svg7256"
   height="20"
   width="20">
  <sodipodi:namedview
     id="base"
     pagecolor="#000000"
     bordercolor="#666666"
     borderopacity="1.0"
     inkscape:pageopacity="0.36470588"
     inkscape:pageshadow="2"
     inkscape:zoom="27.720474"
     inkscape:cx="11.374896"
     inkscape:cy="9.5118106"
     inkscape:document-units="px"
     inkscape:current-layer="layer6"
     showgrid="false"
     inkscape:window-width="1535"
     inkscape:window-height="876"
     inkscape:window-x="65"
     inkscape:window-y="24"
     inkscape:window-maximized="1"
     showguides="true"
     inkscape:guide-bbox="true"
     inkscape:snap-global="true"
     fit-margin-top="0"
     fit-margin-left="0"
     fit-margin-right="0"
     fit-margin-bottom="0"
     inkscape:snap-grids="true"
     height="1052.36px">
    <inkscape:grid
       originy="-2843.5157px"
       originx="-236.51515px"
       dotted="true"
       snapvisiblegridlinesonly="true"
       enabled="true"
       visible="true"
       empspacing="5"
       id="grid10841"
       type="xygrid" />
  </sodipodi:namedview>
  <defs
     id="defs7258">
    <linearGradient
       id="linearGradient9577">
      <stop
         style="stop-color:#ffffff;stop-opacity:1;"
         offset="0"
         id="stop9579" />
      <stop
         style="stop-color:#ddd1bf;stop-opacity:1;"
         offset="1"
         id="stop9581" />
    </linearGradient>
    <linearGradient
       id="linearGradient68693">
      <stop
         style="stop-color:#ffffff;stop-opacity:1;"
         offset="0"
         id="stop68695" />
      <stop
         style="stop-color:#000000;stop-opacity:1;"
         offset="1"
         id="stop68697" />
    </linearGradient>
    <linearGradient
       id="linearGradient18772">
      <stop
         style="stop-color:#cfaa75;stop-opacity:1;"
         offset="0"
         id="stop18774" />
      <stop
         style="stop-color:#cfaa75;stop-opacity:0.66060609;"
         offset="1"
         id="stop18776" />
    </linearGradient>
    <linearGradient
       id="linearGradient18764">
      <stop
         style="stop-color:#bda784;stop-opacity:1;"
         offset="0"
         id="stop18766" />
      <stop
         style="stop-color:#bda784;stop-opacity:1;"
         offset="1"
         id="stop18768" />
    </linearGradient>
    <linearGradient
       id="linearGradient12741">
      <stop
         style="stop-color:#ffffff;stop-opacity:0;"
         offset="0"
         id="stop12743" />
      <stop
         id="stop12749"
         offset="0.2"
         style="stop-color:#ffffff;stop-opacity:1;" />
      <stop
         id="stop12745"
         offset="0.80000001"
         style="stop-color:#ffffff;stop-opacity:1;" />
      <stop
         style="stop-color:#ffffff;stop-opacity:0;"
         offset="1"
         id="stop12747" />
    </linearGradient>
    <linearGradient
       id="linearGradient7496">
      <stop
         id="stop7498"
         offset="0"
         style="stop-color:#ffffff;stop-opacity:1;" />
      <stop
         style="stop-color:#ffffff;stop-opacity:1;"
         offset="0.2"
         id="stop7504" />
      <stop
         id="stop7500"
         offset="1"
         style="stop-color:#ffffff;stop-opacity:0;" />
    </linearGradient>
    <linearGradient
       id="linearGradient5981"
       inkscape:collect="always">
      <stop
         id="stop5983"
         offset="0"
         style="stop-color:#9291f7;stop-opacity:1;" />
      <stop
         id="stop5985"
         offset="1"
         style="stop-color:#9291f7;stop-opacity:0;" />
    </linearGradient>
    <marker
       style="overflow:visible"
       id="DotL"
       refX="0"
       refY="0"
       orient="auto"
       inkscape:stockid="DotL">
      <path
         inkscape:connector-curvature="0"
         transform="matrix(0.8,0,0,0.8,5.92,0.8)"
         style="fill-rule:evenodd;stroke:#000000;stroke-width:1pt"
         d="m -2.5,-1 c 0,2.76 -2.24,5 -5,5 -2.76,0 -5,-2.24 -5,-5 0,-2.76 2.24,-5 5,-5 2.76,0 5,2.24 5,5 z"
         id="path4214" />
    </marker>
    <linearGradient
       gradientUnits="userSpaceOnUse"
       y2="1065.0002"
       x2="1817.9534"
       y1="1065.0002"
       x1="1280"
       id="linearGradient5987"
       xlink:href="#linearGradient5981"
       inkscape:collect="always" />
    <linearGradient
       spreadMethod="pad"
       gradientUnits="userSpaceOnUse"
       y2="4570"
       x2="1080.0625"
       y1="4570"
       x1="79.9375"
       id="linearGradient12753"
       xlink:href="#linearGradient12741"
       inkscape:collect="always" />
    <linearGradient
       gradientUnits="userSpaceOnUse"
       y2="4570"
       x2="1080.0625"
       y1="4570"
       x1="79.9375"
       id="linearGradient13006"
       xlink:href="#linearGradient12741"
       inkscape:collect="always" />
    <linearGradient
       gradientUnits="userSpaceOnUse"
       y2="4570"
       x2="1040.0625"
       y1="4570"
       x1="119.9375"
       id="linearGradient13008"
       xlink:href="#linearGradient12741"
       inkscape:collect="always" />
    <linearGradient
       gradientUnits="userSpaceOnUse"
       y2="4570"
       x2="1080.0625"
       y1="4570"
       x1="79.9375"
       id="linearGradient13416"
       xlink:href="#linearGradient12741"
       inkscape:collect="always" />
    <linearGradient
       id="linearGradient12741-9">
      <stop
         style="stop-color:#ffffff;stop-opacity:0;"
         offset="0"
         id="stop12743-9" />
      <stop
         id="stop12749-2"
         offset="0.2"
         style="stop-color:#ffffff;stop-opacity:1;" />
      <stop
         id="stop12745-1"
         offset="0.80000001"
         style="stop-color:#ffffff;stop-opacity:1;" />
      <stop
         style="stop-color:#ffffff;stop-opacity:0;"
         offset="1"
         id="stop12747-6" />
    </linearGradient>
    <linearGradient
       id="linearGradient13461">
      <stop
         style="stop-color:#ffffff;stop-opacity:0;"
         offset="0"
         id="stop13463" />
      <stop
         id="stop13465"
         offset="0.2"
         style="stop-color:#ffffff;stop-opacity:1;" />
      <stop
         id="stop13467"
         offset="0.80000001"
         style="stop-color:#ffffff;stop-opacity:1;" />
      <stop
         style="stop-color:#ffffff;stop-opacity:0;"
         offset="1"
         id="stop13469" />
    </linearGradient>
    <linearGradient
       id="linearGradient13472">
      <stop
         style="stop-color:#ffffff;stop-opacity:0;"
         offset="0"
         id="stop13474" />
      <stop
         id="stop13476"
         offset="0.2"
         style="stop-color:#ffffff;stop-opacity:1;" />
      <stop
         id="stop13478"
         offset="0.80000001"
         style="stop-color:#ffffff;stop-opacity:1;" />
      <stop
         style="stop-color:#ffffff;stop-opacity:0;"
         offset="1"
         id="stop13480" />
    </linearGradient>
    <linearGradient
       id="linearGradient13483">
      <stop
         style="stop-color:#ffffff;stop-opacity:0;"
         offset="0"
         id="stop13485" />
      <stop
         id="stop13487"
         offset="0.2"
         style="stop-color:#ffffff;stop-opacity:1;" />
      <stop
         id="stop13489"
         offset="0.80000001"
         style="stop-color:#ffffff;stop-opacity:1;" />
      <stop
         style="stop-color:#ffffff;stop-opacity:0;"
         offset="1"
         id="stop13491" />
    </linearGradient>
    <linearGradient
       id="linearGradient13494">
      <stop
         style="stop-color:#ffffff;stop-opacity:0;"
         offset="0"
         id="stop13496" />
      <stop
         id="stop13498"
         offset="0.2"
         style="stop-color:#ffffff;stop-opacity:1;" />
      <stop
         id="stop13500"
         offset="0.80000001"
         style="stop-color:#ffffff;stop-opacity:1;" />
      <stop
         style="stop-color:#ffffff;stop-opacity:0;"
         offset="1"
         id="stop13502" />
    </linearGradient>
    <linearGradient
       id="linearGradient13505">
      <stop
         style="stop-color:#ffffff;stop-opacity:0;"
         offset="0"
         id="stop13507" />
      <stop
         id="stop13509"
         offset="0.2"
         style="stop-color:#ffffff;stop-opacity:1;" />
      <stop
         id="stop13511"
         offset="0.80000001"
         style="stop-color:#ffffff;stop-opacity:1;" />
      <stop
         style="stop-color:#ffffff;stop-opacity:0;"
         offset="1"
         id="stop13513" />
    </linearGradient>
    <linearGradient
       id="linearGradient13516">
      <stop
         style="stop-color:#ffffff;stop-opacity:0;"
         offset="0"
         id="stop13518" />
      <stop
         id="stop13520"
         offset="0.2"
         style="stop-color:#ffffff;stop-opacity:1;" />
      <stop
         id="stop13522"
         offset="0.80000001"
         style="stop-color:#ffffff;stop-opacity:1;" />
      <stop
         style="stop-color:#ffffff;stop-opacity:0;"
         offset="1"
         id="stop13524" />
    </linearGradient>
    <linearGradient
       id="linearGradient13527">
      <stop
         style="stop-color:#ffffff;stop-opacity:0;"
         offset="0"
         id="stop13529" />
      <stop
         id="stop13531"
         offset="0.2"
         style="stop-color:#ffffff;stop-opacity:1;" />
      <stop
         id="stop13533"
         offset="0.80000001"
         style="stop-color:#ffffff;stop-opacity:1;" />
      <stop
         style="stop-color:#ffffff;stop-opacity:0;"
         offset="1"
         id="stop13535" />
    </linearGradient>
    <linearGradient
       id="linearGradient13538">
      <stop
         style="stop-color:#ffffff;stop-opacity:0;"
         offset="0"
         id="stop13540" />
      <stop
         id="stop13542"
         offset="0.2"
         style="stop-color:#ffffff;stop-opacity:1;" />
      <stop
         id="stop13544"
         offset="0.80000001"
         style="stop-color:#ffffff;stop-opacity:1;" />
      <stop
         style="stop-color:#ffffff;stop-opacity:0;"
         offset="1"
         id="stop13546" />
    </linearGradient>
    <linearGradient
       id="linearGradient13549">
      <stop
         style="stop-color:#ffffff;stop-opacity:0;"
         offset="0"
         id="stop13551" />
      <stop
         id="stop13553"
         offset="0.2"
         style="stop-color:#ffffff;stop-opacity:1;" />
      <stop
         id="stop13555"
         offset="0.80000001"
         style="stop-color:#ffffff;stop-opacity:1;" />
      <stop
         style="stop-color:#ffffff;stop-opacity:0;"
         offset="1"
         id="stop13557" />
    </linearGradient>
    <linearGradient
       id="linearGradient13560">
      <stop
         style="stop-color:#ffffff;stop-opacity:0;"
         offset="0"
         id="stop13562" />
      <stop
         id="stop13564"
         offset="0.2"
         style="stop-color:#ffffff;stop-opacity:1;" />
      <stop
         id="stop13566"
         offset="0.80000001"
         style="stop-color:#ffffff;stop-opacity:1;" />
      <stop
         style="stop-color:#ffffff;stop-opacity:0;"
         offset="1"
         id="stop13568" />
    </linearGradient>
    <linearGradient
       y2="4570"
       x2="1080.0625"
       y1="4570"
       x1="79.9375"
       gradientUnits="userSpaceOnUse"
       id="linearGradient13418-4"
       xlink:href="#linearGradient12741-9"
       inkscape:collect="always" />
    <linearGradient
       id="linearGradient13571">
      <stop
         style="stop-color:#ffffff;stop-opacity:0;"
         offset="0"
         id="stop13573" />
      <stop
         id="stop13575"
         offset="0.2"
         style="stop-color:#ffffff;stop-opacity:1;" />
      <stop
         id="stop13577"
         offset="0.80000001"
         style="stop-color:#ffffff;stop-opacity:1;" />
      <stop
         style="stop-color:#ffffff;stop-opacity:0;"
         offset="1"
         id="stop13579" />
    </linearGradient>
    <clipPath
       id="clipPath16705-6"
       clipPathUnits="userSpaceOnUse">
      <path
         id="path16707-3"
         d="m 39.0786,6711.92 155.8424,0 0,-155.84 -155.8424,0 0,155.84 z"
         inkscape:connector-curvature="0" />
    </clipPath>
    <clipPath
       id="clipPath16721-9"
       clipPathUnits="userSpaceOnUse">
      <path
         id="path16723-9"
         d="m 47.3164,6703.68 139.3666,0 0,-139.36 -139.3666,0 0,139.36 z"
         inkscape:connector-curvature="0" />
    </clipPath>
    <clipPath
       id="clipPath16737-2"
       clipPathUnits="userSpaceOnUse">
      <path
         id="path16739-3"
         d="m 55.4277,6695.57 123.1443,0 0,-123.14 -123.1443,0 0,123.14 z"
         inkscape:connector-curvature="0" />
    </clipPath>
    <clipPath
       id="clipPath16753-4"
       clipPathUnits="userSpaceOnUse">
      <path
         id="path16755-5"
         d="m 63.6021,6687.4 106.7959,0 0,-106.8 -106.7959,0 0,106.8 z"
         inkscape:connector-curvature="0" />
    </clipPath>
    <clipPath
       id="clipPath16769-9"
       clipPathUnits="userSpaceOnUse">
      <path
         id="path16771-9"
         d="m 71.5591,6679.44 90.8819,0 0,-90.88 -90.8819,0 0,90.88 z"
         inkscape:connector-curvature="0" />
    </clipPath>
    <clipPath
       id="clipPath16785-2"
       clipPathUnits="userSpaceOnUse">
      <path
         id="path16787-5"
         d="m 79.4243,6671.58 75.1517,0 0,-75.16 -75.1517,0 0,75.16 z"
         inkscape:connector-curvature="0" />
    </clipPath>
    <clipPath
       id="clipPath16839-6"
       clipPathUnits="userSpaceOnUse">
      <path
         id="path16841-0"
         d="m 31.4937,6636.5 88.0063,0 0,-88.01 -88.0063,0 0,88.01 z"
         inkscape:connector-curvature="0" />
    </clipPath>
    <clipPath
       id="clipPath16855-6"
       clipPathUnits="userSpaceOnUse">
      <path
         id="path16857-0"
         d="m 40.0786,6710.92 79.4214,0 0,-153.84 -79.4214,0 0,153.84 z"
         inkscape:connector-curvature="0" />
    </clipPath>
    <clipPath
       id="clipPath16871-9"
       clipPathUnits="userSpaceOnUse">
      <path
         id="path16873-1"
         d="m 48.3164,6702.68 137.3666,0 0,-137.36 -137.3666,0 0,137.36 z"
         inkscape:connector-curvature="0" />
    </clipPath>
    <clipPath
       id="clipPath16887-4"
       clipPathUnits="userSpaceOnUse">
      <path
         id="path16889-0"
         d="m 56.4277,6682.61 63.0723,0 0,-109.18 -63.0723,0 0,109.18 z"
         inkscape:connector-curvature="0" />
    </clipPath>
    <clipPath
       id="clipPath16903-6"
       clipPathUnits="userSpaceOnUse">
      <path
         id="path16905-9"
         d="m 64.6021,6669.22 54.8979,0 0,-87.62 -54.8979,0 0,87.62 z"
         inkscape:connector-curvature="0" />
    </clipPath>
    <clipPath
       id="clipPath16919-8"
       clipPathUnits="userSpaceOnUse">
      <path
         id="path16921-1"
         d="m 79.7573,6613 39.7427,0 0,-23.44 -39.7427,0 0,23.44 z"
         inkscape:connector-curvature="0" />
    </clipPath>
    <clipPath
       id="clipPath16935-4"
       clipPathUnits="userSpaceOnUse">
      <path
         id="path16937-0"
         d="m 81.2959,6628.81 38.2041,0 0,-31.39 -38.2041,0 0,31.39 z"
         inkscape:connector-curvature="0" />
    </clipPath>
    <clipPath
       id="clipPath26673-2"
       clipPathUnits="userSpaceOnUse">
      <path
         id="path26675-3"
         d="m 35,55 2,0 0,-20 -2,0 0,20 z"
         inkscape:connector-curvature="0" />
    </clipPath>
    <clipPath
       id="clipPath26659-2"
       clipPathUnits="userSpaceOnUse">
      <path
         id="path26661-3"
         d="m 35,78 2,0 0,-20 -2,0 0,20 z"
         inkscape:connector-curvature="0" />
    </clipPath>
    <clipPath
       id="clipPath26645-9"
       clipPathUnits="userSpaceOnUse">
      <path
         id="path26647-7"
         d="m 35,101 2,0 0,-20 -2,0 0,20 z"
         inkscape:connector-curvature="0" />
    </clipPath>
    <clipPath
       id="clipPath26631-7"
       clipPathUnits="userSpaceOnUse">
      <path
         id="path26633-3"
         d="m 35,124 2,0 0,-20 -2,0 0,20 z"
         inkscape:connector-curvature="0" />
    </clipPath>
    <clipPath
       id="clipPath26617-4"
       clipPathUnits="userSpaceOnUse">
      <path
         id="path26619-7"
         d="m 35,147 2,0 0,-20 -2,0 0,20 z"
         inkscape:connector-curvature="0" />
    </clipPath>
    <clipPath
       id="clipPath26603-7"
       clipPathUnits="userSpaceOnUse">
      <path
         id="path26605-3"
         d="m 35,170 2,0 0,-20 -2,0 0,20 z"
         inkscape:connector-curvature="0" />
    </clipPath>
    <clipPath
       id="clipPath26587-7"
       clipPathUnits="userSpaceOnUse">
      <path
         id="path26589-0"
         d="m 46,55 106,0 0,-20 -106,0 0,20 z"
         inkscape:connector-curvature="0" />
    </clipPath>
    <clipPath
       id="clipPath26573-6"
       clipPathUnits="userSpaceOnUse">
      <path
         id="path26575-3"
         d="m 46,78 94,0 0,-20 -94,0 0,20 z"
         inkscape:connector-curvature="0" />
    </clipPath>
    <clipPath
       id="clipPath26559-2"
       clipPathUnits="userSpaceOnUse">
      <path
         id="path26561-2"
         d="m 46,101 204,0 0,-20 -204,0 0,20 z"
         inkscape:connector-curvature="0" />
    </clipPath>
    <clipPath
       id="clipPath26545-8"
       clipPathUnits="userSpaceOnUse">
      <path
         id="path26547-2"
         d="m 46,124 171,0 0,-20 -171,0 0,20 z"
         inkscape:connector-curvature="0" />
    </clipPath>
    <clipPath
       id="clipPath26531-5"
       clipPathUnits="userSpaceOnUse">
      <path
         id="path26533-2"
         d="m 46,147 273,0 0,-20 -273,0 0,20 z"
         inkscape:connector-curvature="0" />
    </clipPath>
    <clipPath
       id="clipPath26517-0"
       clipPathUnits="userSpaceOnUse">
      <path
         id="path26519-4"
         d="m 46,170 143,0 0,-20 -143,0 0,20 z"
         inkscape:connector-curvature="0" />
    </clipPath>
    <clipPath
       id="clipPath26517-0-2"
       clipPathUnits="userSpaceOnUse">
      <path
         id="path26519-4-1"
         d="m 46,170 143,0 0,-20 -143,0 0,20 z"
         inkscape:connector-curvature="0" />
    </clipPath>
    <clipPath
       id="clipPath26531-5-2"
       clipPathUnits="userSpaceOnUse">
      <path
         id="path26533-2-9"
         d="m 46,147 273,0 0,-20 -273,0 0,20 z"
         inkscape:connector-curvature="0" />
    </clipPath>
    <clipPath
       id="clipPath26545-8-5"
       clipPathUnits="userSpaceOnUse">
      <path
         id="path26547-2-0"
         d="m 46,124 171,0 0,-20 -171,0 0,20 z"
         inkscape:connector-curvature="0" />
    </clipPath>
    <clipPath
       id="clipPath26559-2-4"
       clipPathUnits="userSpaceOnUse">
      <path
         id="path26561-2-1"
         d="m 46,101 204,0 0,-20 -204,0 0,20 z"
         inkscape:connector-curvature="0" />
    </clipPath>
    <clipPath
       id="clipPath26573-6-7"
       clipPathUnits="userSpaceOnUse">
      <path
         id="path26575-3-5"
         d="m 46,78 94,0 0,-20 -94,0 0,20 z"
         inkscape:connector-curvature="0" />
    </clipPath>
    <clipPath
       id="clipPath26587-7-0"
       clipPathUnits="userSpaceOnUse">
      <path
         id="path26589-0-0"
         d="m 46,55 106,0 0,-20 -106,0 0,20 z"
         inkscape:connector-curvature="0" />
    </clipPath>
    <clipPath
       id="clipPath26603-7-0"
       clipPathUnits="userSpaceOnUse">
      <path
         id="path26605-3-3"
         d="m 35,170 2,0 0,-20 -2,0 0,20 z"
         inkscape:connector-curvature="0" />
    </clipPath>
    <clipPath
       id="clipPath26617-4-6"
       clipPathUnits="userSpaceOnUse">
      <path
         id="path26619-7-3"
         d="m 35,147 2,0 0,-20 -2,0 0,20 z"
         inkscape:connector-curvature="0" />
    </clipPath>
    <clipPath
       id="clipPath26631-7-1"
       clipPathUnits="userSpaceOnUse">
      <path
         id="path26633-3-7"
         d="m 35,124 2,0 0,-20 -2,0 0,20 z"
         inkscape:connector-curvature="0" />
    </clipPath>
    <clipPath
       id="clipPath26645-9-2"
       clipPathUnits="userSpaceOnUse">
      <path
         id="path26647-7-5"
         d="m 35,101 2,0 0,-20 -2,0 0,20 z"
         inkscape:connector-curvature="0" />
    </clipPath>
    <clipPath
       id="clipPath26659-2-9"
       clipPathUnits="userSpaceOnUse">
      <path
         id="path26661-3-0"
         d="m 35,78 2,0 0,-20 -2,0 0,20 z"
         inkscape:connector-curvature="0" />
    </clipPath>
    <clipPath
       id="clipPath26673-2-9"
       clipPathUnits="userSpaceOnUse">
      <path
         id="path26675-3-2"
         d="m 35,55 2,0 0,-20 -2,0 0,20 z"
         inkscape:connector-curvature="0" />
    </clipPath>
    <clipPath
       id="clipPath26517-0-2-7"
       clipPathUnits="userSpaceOnUse">
      <path
         id="path26519-4-1-3"
         d="m 46,170 143,0 0,-20 -143,0 0,20 z"
         inkscape:connector-curvature="0" />
    </clipPath>
    <clipPath
       id="clipPath26531-5-2-9"
       clipPathUnits="userSpaceOnUse">
      <path
         id="path26533-2-9-0"
         d="m 46,147 273,0 0,-20 -273,0 0,20 z"
         inkscape:connector-curvature="0" />
    </clipPath>
    <clipPath
       id="clipPath26545-8-5-5"
       clipPathUnits="userSpaceOnUse">
      <path
         id="path26547-2-0-1"
         d="m 46,124 171,0 0,-20 -171,0 0,20 z"
         inkscape:connector-curvature="0" />
    </clipPath>
    <clipPath
       id="clipPath26559-2-4-0"
       clipPathUnits="userSpaceOnUse">
      <path
         id="path26561-2-1-3"
         d="m 46,101 204,0 0,-20 -204,0 0,20 z"
         inkscape:connector-curvature="0" />
    </clipPath>
    <clipPath
       id="clipPath26573-6-7-4"
       clipPathUnits="userSpaceOnUse">
      <path
         id="path26575-3-5-9"
         d="m 46,78 94,0 0,-20 -94,0 0,20 z"
         inkscape:connector-curvature="0" />
    </clipPath>
    <clipPath
       id="clipPath26587-7-0-3"
       clipPathUnits="userSpaceOnUse">
      <path
         id="path26589-0-0-2"
         d="m 46,55 106,0 0,-20 -106,0 0,20 z"
         inkscape:connector-curvature="0" />
    </clipPath>
    <clipPath
       id="clipPath26603-7-0-5"
       clipPathUnits="userSpaceOnUse">
      <path
         id="path26605-3-3-1"
         d="m 35,170 2,0 0,-20 -2,0 0,20 z"
         inkscape:connector-curvature="0" />
    </clipPath>
    <clipPath
       id="clipPath26617-4-6-0"
       clipPathUnits="userSpaceOnUse">
      <path
         id="path26619-7-3-0"
         d="m 35,147 2,0 0,-20 -2,0 0,20 z"
         inkscape:connector-curvature="0" />
    </clipPath>
    <clipPath
       id="clipPath26631-7-1-3"
       clipPathUnits="userSpaceOnUse">
      <path
         id="path26633-3-7-5"
         d="m 35,124 2,0 0,-20 -2,0 0,20 z"
         inkscape:connector-curvature="0" />
    </clipPath>
    <clipPath
       id="clipPath26645-9-2-6"
       clipPathUnits="userSpaceOnUse">
      <path
         id="path26647-7-5-3"
         d="m 35,101 2,0 0,-20 -2,0 0,20 z"
         inkscape:connector-curvature="0" />
    </clipPath>
    <clipPath
       id="clipPath26659-2-9-9"
       clipPathUnits="userSpaceOnUse">
      <path
         id="path26661-3-0-5"
         d="m 35,78 2,0 0,-20 -2,0 0,20 z"
         inkscape:connector-curvature="0" />
    </clipPath>
    <clipPath
       id="clipPath26673-2-9-7"
       clipPathUnits="userSpaceOnUse">
      <path
         id="path26675-3-2-7"
         d="m 35,55 2,0 0,-20 -2,0 0,20 z"
         inkscape:connector-curvature="0" />
    </clipPath>
    <linearGradient
       id="linearGradient18764-2">
      <stop
         style="stop-color:#bda784;stop-opacity:0.9878788;"
         offset="0"
         id="stop18766-8" />
      <stop
         style="stop-color:#bda784;stop-opacity:0.68484849;"
         offset="1"
         id="stop18768-8" />
    </linearGradient>
    <clipPath
       clipPathUnits="userSpaceOnUse"
       id="clipPath3142">
      <path
         inkscape:connector-curvature="0"
         d="m 161,978 36.332,0 0,-89.335 -36.332,0 0,89.335 z"
         id="path3144" />
    </clipPath>
    <clipPath
       id="clipPath26587-7-0-3-4"
       clipPathUnits="userSpaceOnUse">
      <path
         id="path26589-0-0-2-7"
         d="m 46,55 106,0 0,-20 -106,0 0,20 z"
         inkscape:connector-curvature="0" />
    </clipPath>
    <linearGradient
       inkscape:collect="always"
       xlink:href="#linearGradient68693"
       id="linearGradient68783"
       gradientUnits="userSpaceOnUse"
       gradientTransform="matrix(8.7928745,0,0,4.42226,-1690.0418,-8310.7344)"
       x1="279.37509"
       y1="2429.0149"
       x2="279.8754"
       y2="2618.5195" />
    <linearGradient
       inkscape:collect="always"
       xlink:href="#linearGradient68693"
       id="linearGradient69347"
       gradientUnits="userSpaceOnUse"
       gradientTransform="matrix(8.7928745,0,0,3.9684452,-1710.0418,-7197.4114)"
       x1="279.37509"
       y1="2429.0149"
       x2="279.8754"
       y2="2618.5195" />
    <linearGradient
       inkscape:collect="always"
       xlink:href="#linearGradient68693"
       id="linearGradient69455"
       gradientUnits="userSpaceOnUse"
       gradientTransform="matrix(8.7928745,0,0,2.9763849,-1710.0418,-4787.6821)"
       x1="279.37509"
       y1="2429.0149"
       x2="279.8754"
       y2="2618.5195" />
    <clipPath
       id="clipPath26517-0-2-7-6"
       clipPathUnits="userSpaceOnUse">
      <path
         id="path26519-4-1-3-5"
         d="m 46,170 143,0 0,-20 -143,0 0,20 z"
         inkscape:connector-curvature="0" />
    </clipPath>
    <clipPath
       id="clipPath26531-5-2-9-6"
       clipPathUnits="userSpaceOnUse">
      <path
         id="path26533-2-9-0-5"
         d="m 46,147 273,0 0,-20 -273,0 0,20 z"
         inkscape:connector-curvature="0" />
    </clipPath>
    <clipPath
       id="clipPath26545-8-5-5-1"
       clipPathUnits="userSpaceOnUse">
      <path
         id="path26547-2-0-1-6"
         d="m 46,124 171,0 0,-20 -171,0 0,20 z"
         inkscape:connector-curvature="0" />
    </clipPath>
    <clipPath
       id="clipPath26559-2-4-0-9"
       clipPathUnits="userSpaceOnUse">
      <path
         id="path26561-2-1-3-2"
         d="m 46,101 204,0 0,-20 -204,0 0,20 z"
         inkscape:connector-curvature="0" />
    </clipPath>
    <clipPath
       id="clipPath26573-6-7-4-0"
       clipPathUnits="userSpaceOnUse">
      <path
         id="path26575-3-5-9-9"
         d="m 46,78 94,0 0,-20 -94,0 0,20 z"
         inkscape:connector-curvature="0" />
    </clipPath>
    <clipPath
       id="clipPath26587-7-0-3-1"
       clipPathUnits="userSpaceOnUse">
      <path
         id="path26589-0-0-2-2"
         d="m 46,55 106,0 0,-20 -106,0 0,20 z"
         inkscape:connector-curvature="0" />
    </clipPath>
    <clipPath
       id="clipPath26603-7-0-5-3"
       clipPathUnits="userSpaceOnUse">
      <path
         id="path26605-3-3-1-1"
         d="m 35,170 2,0 0,-20 -2,0 0,20 z"
         inkscape:connector-curvature="0" />
    </clipPath>
    <clipPath
       id="clipPath26617-4-6-0-8"
       clipPathUnits="userSpaceOnUse">
      <path
         id="path26619-7-3-0-2"
         d="m 35,147 2,0 0,-20 -2,0 0,20 z"
         inkscape:connector-curvature="0" />
    </clipPath>
    <clipPath
       id="clipPath26631-7-1-3-0"
       clipPathUnits="userSpaceOnUse">
      <path
         id="path26633-3-7-5-2"
         d="m 35,124 2,0 0,-20 -2,0 0,20 z"
         inkscape:connector-curvature="0" />
    </clipPath>
    <clipPath
       id="clipPath26645-9-2-6-4"
       clipPathUnits="userSpaceOnUse">
      <path
         id="path26647-7-5-3-6"
         d="m 35,101 2,0 0,-20 -2,0 0,20 z"
         inkscape:connector-curvature="0" />
    </clipPath>
    <clipPath
       id="clipPath26659-2-9-9-9"
       clipPathUnits="userSpaceOnUse">
      <path
         id="path26661-3-0-5-7"
         d="m 35,78 2,0 0,-20 -2,0 0,20 z"
         inkscape:connector-curvature="0" />
    </clipPath>
    <clipPath
       id="clipPath26673-2-9-7-2"
       clipPathUnits="userSpaceOnUse">
      <path
         id="path26675-3-2-7-5"
         d="m 35,55 2,0 0,-20 -2,0 0,20 z"
         inkscape:connector-curvature="0" />
    </clipPath>
    <linearGradient
       inkscape:collect="always"
       xlink:href="#linearGradient68693"
       id="linearGradient69658"
       gradientUnits="userSpaceOnUse"
       gradientTransform="matrix(8.7928745,0,0,2.7389237,-1710.0418,-4165.8852)"
       x1="279.37509"
       y1="2429.0149"
       x2="279.8754"
       y2="2618.5195" />
    <linearGradient
       inkscape:collect="always"
       xlink:href="#linearGradient68693"
       id="linearGradient69688"
       gradientUnits="userSpaceOnUse"
       gradientTransform="matrix(8.7928745,0,0,2.2165089,-1710.0418,-2935.932)"
       x1="279.99084"
       y1="2443.5425"
       x2="279.8754"
       y2="2618.5195" />
    <mask
       maskUnits="userSpaceOnUse"
       id="mask69684">
      <rect
         y="2448.0012"
         x="69.96257"
         height="420.0387"
         width="1287.0228"
         id="rect69686"
         style="fill:url(#linearGradient69688);fill-opacity:1;fill-rule:nonzero;stroke:none" />
    </mask>
    <linearGradient
       inkscape:collect="always"
       xlink:href="#linearGradient9577"
       id="linearGradient9583"
       x1="1311.9058"
       y1="1957.6202"
       x2="1334.438"
       y2="1962.9236"
       gradientUnits="userSpaceOnUse" />
  </defs>
  <metadata
     id="metadata7261">
    <rdf:RDF>
      <cc:Work
         rdf:about="">
        <dc:format>image/svg+xml</dc:format>
        <dc:type
           rdf:resource="http://purl.org/dc/dcmitype/StillImage" />
        <dc:title />
      </cc:Work>
    </rdf:RDF>
  </metadata>
  <g
     transform="translate(-236.51515,-2136.4842)"
     style="display:inline"
     inkscape:label="timeline"
     id="layer6"
     inkscape:groupmode="layer">
    <path
       style="fill:#ffffff;fill-opacity:0.82352941;display:inline"
       d="m 250.75248,2153.5908 c -0.51722,-1.5659 -0.53369,-1.5941 -0.87446,-1.4877 l -0.27192,0.086 -0.0679,-0.4611 c -0.0514,-0.3492 -0.0347,-0.466 0.0687,-0.4813 0.0752,-0.012 0.12799,-0.071 0.11734,-0.1336 -0.0105,-0.063 -0.42787,-1.1008 -0.92714,-2.3076 l -0.9078,-2.1939 -0.61371,0.063 c -0.62772,0.064 -0.65342,0.084 -0.56465,0.4455 0.0435,0.177 -0.16607,0.4258 -0.30737,0.3648 -0.0572,-0.024 -0.12484,-0.1879 -0.15056,-0.3626 l -0.0467,-0.3178 -0.60722,0.117 -0.60719,0.1169 -0.23565,2.3623 c -0.12962,1.2994 -0.22921,2.4137 -0.2213,2.4767 0.008,0.063 0.0781,0.1049 0.15606,0.093 0.11218,-0.016 0.14917,0.07 0.17765,0.4162 0.0344,0.4174 0.0232,0.44 -0.25165,0.5081 -0.33801,0.084 -0.32492,0.026 -0.36355,1.6057 -0.0335,1.3669 -0.0374,1.3644 -0.55338,-0.3541 -0.28184,-0.9385 -0.33296,-1.0427 -0.51117,-1.0419 -0.16536,6e-4 -0.21312,-0.07 -0.28953,-0.4279 -0.09,-0.4217 -0.087,-0.4294 0.17981,-0.4687 0.22591,-0.032 0.27986,-0.092 0.32238,-0.3502 0.0705,-0.4273 0.46761,-4.4856 0.45047,-4.6021 -0.008,-0.054 -0.23089,-0.062 -0.51508,-0.02 l -0.50122,0.074 -0.047,-0.3188 -0.047,-0.319 0.58881,-0.086 0.5888,-0.086 0.0648,-0.4524 c 0.0356,-0.2489 0.0825,-0.6911 0.10426,-0.9828 0.039,-0.5263 0.0367,-0.5329 -0.29014,-0.8412 -0.65486,-0.6178 -0.95218,-1.5681 -0.79353,-2.5362 0.10869,-0.6629 0.76768,-1.5892 1.33413,-1.8751 l 0.38955,-0.1966 -0.0963,-0.8355 c -0.0893,-0.7755 -0.0813,-0.8514 0.11299,-1.0565 0.11509,-0.1217 0.25979,-0.2286 0.32144,-0.2377 0.0617,-0.012 0.231,0.051 0.37629,0.1349 0.24517,0.1404 0.27485,0.2109 0.41275,0.9791 l 0.1486,0.8278 0.39919,0.071 c 0.90339,0.1598 1.82162,1.0749 2.07392,2.067 0.15959,0.6276 0.0564,1.412 -0.26092,1.9845 l -0.23846,0.43 0.36616,0.906 0.36616,0.9061 0.6153,-0.09 0.61532,-0.09 0.047,0.3189 0.047,0.3189 -0.50122,0.074 c -0.28507,0.042 -0.49521,0.1143 -0.48731,0.1683 0.0143,0.097 0.62142,1.6069 0.66213,1.6471 0.0123,0.012 0.0883,-0.015 0.16874,-0.06 0.0879,-0.049 0.11649,-0.1351 0.0717,-0.2148 -0.067,-0.1188 0.0419,-0.299 0.19661,-0.3255 0.0326,0 0.14022,0.1921 0.23942,0.4393 0.14702,0.3663 0.16017,0.4664 0.071,0.5414 -0.0685,0.058 -0.15999,0.041 -0.24481,-0.044 -0.10354,-0.1038 -0.15731,-0.1073 -0.22793,-0.014 -0.0711,0.095 0.0209,0.4018 0.40017,1.3377 0.47675,1.1762 0.50075,1.2149 0.74744,1.2072 0.2396,-0.012 0.2588,0.019 0.32105,0.4415 0.0572,0.3888 0.0416,0.4532 -0.11603,0.4764 -0.10029,0.015 -0.17928,0.059 -0.17565,0.096 0.009,0.094 0.008,0.5437 -0.003,1.7461 l -0.009,1.0255 -0.39588,-1.1987 z m -4.68625,-7.7389 c -0.0311,-0.2111 2e-5,-0.3485 0.0903,-0.3993 0.16933,-0.096 0.3236,0.071 0.37446,0.4036 0.0371,0.2426 0.0539,0.2481 0.53951,0.1766 0.3408,-0.05 0.49551,-0.1108 0.48337,-0.1876 -0.0205,-0.1307 -0.40487,-1.0401 -0.45363,-1.0733 -0.0178,-0.012 -0.23266,0.041 -0.47741,0.1174 -0.24473,0.077 -0.65189,0.1321 -0.90477,0.1228 -0.25289,-0.012 -0.47274,4e-4 -0.48858,0.022 -0.0157,0.021 -0.0664,0.3222 -0.11265,0.6688 l -0.0839,0.63 0.54034,-0.079 0.54035,-0.079 z m 0.44239,-2.7417 c 0.38126,-0.3477 0.47001,-0.6516 0.34563,-1.1833 -0.33174,-1.4184 -2.44325,-0.9933 -2.23085,0.4491 0.0715,0.4858 0.2721,0.7431 0.73085,0.9377 0.41421,0.1759 0.81585,0.105 1.15437,-0.2035 z"
       id="path13047-1-0"
       inkscape:connector-curvature="0"
       sodipodi:nodetypes="cscsscscsssscccscssssssssssscccccssssscssssscssscccccccssccscsssssssssscccsscscccscscccssssss" />
  </g>
</svg>
